<svg width="500" height="373" viewBox="0 0 500 373" fill="none" xmlns="http://www.w3.org/2000/svg">
<path d="M500 327.446H0V327.696H500V327.446Z" fill="#EBEBEB"/>
<path d="M449.901 343.542H416.779V343.792H449.901V343.542Z" fill="#EBEBEB"/>
<path d="M331.22 346.256H322.527V346.506H331.22V346.256Z" fill="#EBEBEB"/>
<path d="M415.778 334.256H396.586V334.506H415.778V334.256Z" fill="#EBEBEB"/>
<path d="M95.652 335.936H52.459V336.186H95.652V335.936Z" fill="#EBEBEB"/>
<path d="M110.889 335.936H104.556V336.186H110.889V335.936Z" fill="#EBEBEB"/>
<path d="M225.147 340.159H131.471V340.409H225.147V340.159Z" fill="#EBEBEB"/>
<path d="M237.014 282.848H43.915C40.768 282.848 38.207 280.287 38.207 277.14V5.708C38.207 2.561 40.768 0 43.915 0H237.014C240.16 0 242.721 2.561 242.721 5.708V277.14C242.721 280.287 240.16 282.848 237.014 282.848ZM43.915 0.250999C40.905 0.250999 38.457 2.699 38.457 5.709V277.141C38.457 280.151 40.905 282.599 43.915 282.599H237.014C240.023 282.599 242.471 280.151 242.471 277.141V5.708C242.471 2.699 240.023 0.25 237.014 0.25L43.915 0.250999Z" fill="#EBEBEB"/>
<path d="M453.31 282.848H260.212C257.065 282.848 254.505 280.287 254.505 277.14V5.708C254.505 2.561 257.066 0 260.212 0H453.31C456.458 0 459.018 2.561 459.018 5.708V277.14C459.019 280.287 456.458 282.848 453.31 282.848ZM260.212 0.250999C257.203 0.250999 254.755 2.699 254.755 5.709V277.141C254.755 280.151 257.203 282.599 260.212 282.599H453.31C456.32 282.599 458.768 280.151 458.768 277.141V5.708C458.768 2.699 456.32 0.25 453.31 0.25L260.212 0.250999Z" fill="#EBEBEB"/>
<path d="M413.808 171.567V48.1028L331.27 48.1028V171.567H413.808Z" fill="#E6E6E6"/>
<path d="M411.303 171.566V48.1023L328.765 48.1023V171.566H411.303Z" fill="#F5F5F5"/>
<path d="M400.697 58.71H339.373V160.959H400.697V58.71Z" fill="white"/>
<path d="M340.767 160.959V58.7104H339.374V160.959H340.767Z" fill="#E6E6E6"/>
<path d="M214.822 327.448L249.823 327.447L249.82 214.559L214.819 214.56L214.822 327.448Z" fill="#E6E6E6"/>
<path d="M221.47 327.449H214.822L214.821 311.432L228.44 311.431L221.47 327.449Z" fill="#F0F0F0"/>
<path d="M401.853 327.445L436.854 327.444L436.851 214.556L401.85 214.557L401.853 327.445Z" fill="#E6E6E6"/>
<path d="M214.821 325.1L407.654 325.097L407.652 214.558L214.819 214.561L214.821 325.1Z" fill="#F0F0F0"/>
<path d="M219.975 221.288L219.976 246.695L337.112 246.69L337.111 221.283L219.975 221.288Z" fill="#E6E6E6"/>
<path d="M341.575 221.285L341.575 246.692L402.495 246.69L402.495 221.283L341.575 221.285Z" fill="#E6E6E6"/>
<path d="M366.008 224.357H378.06C383.295 224.357 388.3 223.107 391.9 220.899L352.167 220.9C355.768 223.107 360.773 224.357 366.008 224.357Z" fill="#F0F0F0"/>
<path d="M243.794 224.358H312.063C317.298 224.358 322.303 223.107 325.903 220.9L229.953 220.901C233.554 223.108 238.558 224.359 243.794 224.358Z" fill="#F0F0F0"/>
<path d="M219.977 253.973L219.978 279.38L337.114 279.376L337.113 253.969L219.977 253.973Z" fill="#E6E6E6"/>
<path d="M341.575 253.971L341.576 279.378L402.496 279.376L402.495 253.969L341.575 253.971Z" fill="#E6E6E6"/>
<path d="M366.009 257.042H378.061C383.296 257.042 388.301 255.792 391.901 253.584L352.168 253.585C355.769 255.792 360.774 257.042 366.009 257.042Z" fill="#F0F0F0"/>
<path d="M243.795 257.044H312.064C317.299 257.044 322.304 255.793 325.904 253.586L229.954 253.587C233.555 255.794 238.56 257.044 243.795 257.044Z" fill="#F0F0F0"/>
<path d="M219.977 286.659L219.978 312.066L337.114 312.062L337.113 286.655L219.977 286.659Z" fill="#E6E6E6"/>
<path d="M341.576 286.656L341.577 312.063L402.497 312.061L402.496 286.654L341.576 286.656Z" fill="#E6E6E6"/>
<path d="M366.01 289.728H378.062C383.297 289.728 388.302 288.477 391.902 286.27L352.169 286.271C355.77 288.478 360.775 289.728 366.01 289.728Z" fill="#F0F0F0"/>
<path d="M243.796 289.73H312.065C317.3 289.73 322.305 288.479 325.906 286.272L229.956 286.273C233.556 288.48 238.561 289.73 243.796 289.73Z" fill="#F0F0F0"/>
<path d="M401.007 327.445H407.655L407.654 311.428H394.036L401.007 327.445Z" fill="#F0F0F0"/>
<path d="M419.225 194.464C419.225 194.464 418.21 205.933 379.284 205.935C340.358 205.937 339.342 194.467 339.342 194.467L419.225 194.464Z" fill="#FAFAFA"/>
<path d="M419.225 203.087C419.225 203.087 418.21 214.556 379.284 214.558C340.358 214.56 339.342 203.09 339.342 203.09L419.225 203.087Z" fill="#EBEBEB"/>
<path d="M146.595 327.445H186.609L174.755 224.517H146.595V327.445Z" fill="#E6E6E6"/>
<path d="M79.0459 327.446H168.05L177.443 206.976H88.4389L79.0459 327.446Z" fill="#E0E0E0"/>
<path d="M72.645 327.446H165.261L174.654 206.976H82.038L72.645 327.446Z" fill="#F5F5F5"/>
<path d="M156.508 317.953L164.42 216.47H90.7909L82.8789 317.953H156.508Z" fill="white"/>
<path d="M289.018 20.7358H62.2251V186.031H289.018V20.7358Z" fill="#EBEBEB"/>
<path d="M281.256 29.4819H69.989V177.285H281.256V29.4819Z" fill="#FAFAFA"/>
<path d="M115.453 177.285H93.2781L114.158 29.4819H136.333L115.453 177.285Z" fill="white"/>
<path d="M170.239 177.285H148.064L168.945 29.4819H191.12L170.239 177.285Z" fill="white"/>
<path d="M240.868 177.285H229.78L250.661 29.4819H261.748L240.868 177.285Z" fill="white"/>
<path d="M189.74 177.285H178.652L199.533 29.4819H210.62L189.74 177.285Z" fill="white"/>
<path d="M140.812 29.4819H130.362V177.285H140.812V29.4819Z" fill="#EBEBEB"/>
<path d="M140.812 177.284H143.141L143.141 29.4812H140.812L140.812 177.284Z" fill="#E0E0E0"/>
<path d="M289.019 186.03H290.691V20.735H289.019V186.03Z" fill="#E0E0E0"/>
<path d="M250 372.609C357.082 372.609 443.889 367.54 443.889 361.286C443.889 355.033 357.082 349.963 250 349.963C142.918 349.963 56.1108 355.033 56.1108 361.286C56.1108 367.54 142.918 372.609 250 372.609Z" fill="#F5F5F5"/>
<path d="M296.581 332.357L309.256 325.037L316.995 340.532L306.414 346.665L296.581 332.357Z" fill="#965B2F"/>
<path opacity="0.2" d="M296.587 332.36L309.266 325.038L313.598 333.716L302.091 340.374L296.587 332.36Z" fill="black"/>
<path d="M301.138 282.398C310.118 261.595 324.909 237.428 318.849 215.119L278.493 208.739C278.493 208.739 270.148 258.596 271.804 279.046C273.523 300.309 298.619 338.051 298.619 338.051L313.073 329.567C313.073 329.567 306.788 297.304 301.138 282.398Z" fill="#FFA000"/>
<g opacity="0.4">
<path d="M301.138 282.398C310.118 261.595 324.909 237.428 318.849 215.119L278.493 208.739C278.493 208.739 270.148 258.596 271.804 279.046C273.523 300.309 298.619 338.051 298.619 338.051L313.073 329.567C313.073 329.567 306.788 297.304 301.138 282.398Z" fill="black"/>
</g>
<path d="M314.53 329.398L298.017 339.147L292.762 332.315L312.22 322.013L314.53 329.398Z" fill="#FFA000"/>
<path opacity="0.2" d="M304.093 275.827C308.947 265.297 314.552 254.083 317.721 242.804C308.188 244.428 300.11 252.169 304.093 275.827Z" fill="black"/>
<path d="M316.583 336.858C316.335 336.539 315.811 336.571 315.613 336.911C313.532 340.477 307.537 343.904 305.222 345.133C304.656 345.433 304.276 345.931 304.092 346.498C302.961 349.98 298.485 355.178 298.485 355.178C298.485 355.178 298.73 356.335 299.3 357.497C299.781 358.478 301.037 358.775 301.885 358.087L320.305 343.123C320.97 342.583 321.015 341.584 320.396 340.991C319.351 339.988 317.806 338.429 316.583 336.858Z" fill="#232323"/>
<path d="M320.387 339.418L335.022 339.558L333.694 356.836L321.464 356.738L320.387 339.418Z" fill="#965B2F"/>
<path d="M334.974 354.181C335.017 353.776 334.624 353.471 334.242 353.611C330.255 355.072 323.53 353.954 321.001 353.449C320.383 353.325 319.762 353.472 319.234 353.797C315.991 355.788 310.256 357.003 310.256 357.003C310.256 357.003 309.67 357.985 309.271 359.189C308.91 360.278 309.722 361.405 310.87 361.404L333.432 361.393C334.241 361.393 334.891 360.72 334.856 359.912C334.794 358.478 334.757 356.228 334.974 354.181Z" fill="#232323"/>
<path opacity="0.2" d="M320.391 339.424L335.031 339.563L334.284 349.239L320.991 349.123L320.391 339.424Z" fill="black"/>
<path d="M344.286 281.208C348.846 259.474 357.06 231.223 351.275 220.009L304.027 212.692C304.027 212.692 309.903 257.65 311.454 278.594C313.064 300.37 319.435 345.356 319.435 345.356L335.273 345.398C335.273 345.398 346.298 307.128 344.286 281.208Z" fill="#FD9F00"/>
<path opacity="0.4" d="M344.286 281.208C348.846 259.474 357.06 231.223 351.275 220.009L304.027 212.692C304.027 212.692 309.903 257.65 311.454 278.594C313.064 300.37 319.435 345.356 319.435 345.356L335.273 345.398C335.273 345.398 346.298 307.128 344.286 281.208Z" fill="black"/>
<path d="M337.002 345.995H317.946L317.652 338.062L338.636 338.402L337.002 345.995Z" fill="#FFA000"/>
<path d="M316.504 144.062L315.299 145.03L314.178 145.905C313.433 146.477 312.677 147.019 311.924 147.565C310.421 148.658 308.872 149.673 307.317 150.686C304.182 152.673 300.966 154.568 297.568 156.249C294.185 157.957 290.652 159.5 286.874 160.771C283.11 162.068 279.072 163.064 274.623 163.492L273.806 163.571C271.658 163.778 269.61 163.125 268.023 161.909C264.714 159.364 262.679 156.251 261.345 153.405C260.655 151.971 260.135 150.541 259.74 149.146C259.342 147.751 259.003 146.385 258.782 145.037C258.566 143.686 258.409 142.357 258.302 141.047C258.206 139.736 258.19 138.436 258.193 137.153C258.206 135.868 258.29 134.593 258.401 133.326L258.629 131.422L258.962 129.426C259.434 126.592 262.114 124.679 264.948 125.151C266.759 125.453 268.195 126.657 268.871 128.227L269.285 129.21C269.441 129.58 269.622 130.145 269.798 130.624L270.322 132.123C270.662 133.121 271.037 134.105 271.405 135.07C272.149 136.997 272.931 138.847 273.798 140.508C274.623 142.174 275.591 143.648 276.487 144.72C277.381 145.834 278.3 146.332 278.716 146.424L272.116 144.841C274.494 144.306 277.111 143.354 279.777 142.19C281.107 141.612 282.45 140.94 283.789 140.241C285.138 139.563 286.488 138.816 287.831 138.043C290.511 136.479 293.206 134.822 295.852 133.061C297.184 132.193 298.489 131.278 299.8 130.384L301.738 129.023L303.531 127.745L303.936 127.456C308.621 124.118 315.126 125.209 318.464 129.895C321.682 134.408 320.763 140.629 316.504 144.062Z" fill="#965B2F"/>
<path d="M268.848 128.989L263.681 132.36C257.349 133.749 256.972 125.3 256.972 125.3L255.149 121.31C254.531 119.958 255.128 118.269 256.559 117.32L260.153 114.936C261.791 113.849 263.919 114.117 264.87 115.53L267.008 118.705C267.63 119.629 268.014 120.692 268.125 121.8L268.848 128.989Z" fill="#965B2F"/>
<path d="M316.161 123.056C306.261 122.466 285.915 135.234 285.915 135.234C283.571 142.695 287.655 156.839 293.618 160.336C293.618 160.336 308.766 153.828 315.895 147.501C324.511 139.853 336.187 124.249 316.161 123.056Z" fill="#232323"/>
<path d="M317.078 123.073C329.201 123.677 345.112 126.293 357.207 129.942C364.756 132.219 369.46 137.866 366.078 153.526C359.216 185.293 359.78 211.248 353.914 222.143C353.914 222.143 285.226 226.386 276.042 210.543C277.903 171.321 296.705 141.43 305.089 129.072C307.77 125.121 312.308 122.835 317.078 123.073Z" fill="#232323"/>
<path d="M320.969 127.416C322.743 126.146 324.212 127.273 325.311 125.119C325.896 123.536 325.924 121.789 325.273 119.764L345.11 112.721C343.707 119.401 342.612 124.678 345.181 127.816C345.272 132.971 333.364 137.681 323.299 135.769C314.44 134.085 318.417 129.243 320.969 127.416Z" fill="#965B2F"/>
<path opacity="0.2" d="M325.453 120.377L340.468 119C335.928 124.181 328.861 126.307 325.542 124.37C325.844 123.15 325.832 121.84 325.453 120.377Z" fill="black"/>
<path d="M323.998 101.576C323.206 93.8883 330.698 84.1593 336.961 87.5143C343.223 90.8693 323.998 101.576 323.998 101.576Z" fill="#232323"/>
<path d="M350.405 105.963C346.436 114.722 343.552 120.585 336.904 122.391C323.695 125.98 319.348 118.723 320.625 108.928C321.774 100.112 328.072 87.2691 338.198 87.1271C348.174 86.9891 354.375 97.2041 350.405 105.963Z" fill="#965B2F"/>
<path d="M348.116 112.983C343.587 112.326 340.274 104.149 345.013 99.8712C349.752 95.5942 348.116 91.4842 344.677 90.2682C341.238 89.0522 334.99 89.9332 333.564 86.8712C332.138 83.8102 341.658 81.5872 347.193 85.1102C352.728 88.6332 352.435 86.4942 352.435 86.4942C352.435 86.4942 353.589 88.2972 351.398 88.6752C355.748 91.5692 360.571 98.5302 356.084 101.381C361.745 104.568 352.98 112.13 348.116 112.983Z" fill="#232323"/>
<path d="M354.686 100.898C357.705 101.884 358.991 99.5991 358.991 99.5991C358.991 99.5991 359.942 103.323 354.686 100.898Z" fill="#232323"/>
<path d="M332.494 110.177C332.896 110.004 333.305 109.787 333.716 109.516C333.827 109.443 333.85 109.295 333.766 109.186C333.683 109.078 333.529 109.048 333.414 109.122C330.414 111.105 327.438 109.976 327.408 109.964C327.277 109.912 327.133 109.969 327.086 110.09C327.038 110.211 327.105 110.35 327.235 110.401C327.351 110.447 329.746 111.358 332.494 110.177Z" fill="#232323"/>
<path opacity="0.2" d="M337.819 103.28C337.819 103.28 339.772 102.847 341.077 103.886C339.244 103.911 337.819 103.28 337.819 103.28Z" fill="black"/>
<path opacity="0.2" d="M337.727 104.066C337.727 104.066 339.552 104.05 340.45 105.335C338.828 104.978 337.727 104.066 337.727 104.066Z" fill="black"/>
<path d="M349.855 115.447C347.946 117.19 345.406 117.879 343.28 117.736C340.082 117.521 340.497 115.003 342.255 112.534C343.837 110.312 346.431 107.137 349.222 108.57C351.973 109.982 352.038 113.454 349.855 115.447Z" fill="#965B2F"/>
<path d="M335.965 102.995C335.687 103.726 335.074 104.167 334.598 103.98C334.121 103.794 333.961 103.05 334.239 102.319C334.517 101.588 335.13 101.147 335.606 101.334C336.083 101.521 336.244 102.265 335.965 102.995Z" fill="#232323"/>
<path d="M327.514 99.7062C327.236 100.437 326.623 100.878 326.147 100.691C325.67 100.505 325.51 99.7611 325.788 99.0301C326.066 98.2991 326.678 97.8581 327.155 98.0451C327.631 98.2321 327.792 98.9752 327.514 99.7062Z" fill="#232323"/>
<path d="M330.153 100.898L328.023 107.297C328.023 107.297 325.808 108.066 323.783 105.887C325.902 102.597 330.153 100.898 330.153 100.898Z" fill="#965B2F"/>
<path d="M339.847 98.7422C339.919 98.7672 339.999 98.7732 340.079 98.7582C340.327 98.7112 340.489 98.4692 340.44 98.2192C339.953 95.7132 338.001 94.8812 337.918 94.8462C337.683 94.7492 337.416 94.8612 337.322 95.0972C337.228 95.3322 337.34 95.6002 337.573 95.6982C337.637 95.7252 339.152 96.3912 339.541 98.3902C339.575 98.5602 339.696 98.6902 339.847 98.7422Z" fill="#232323"/>
<path d="M324.341 96.2903C324.485 96.3293 324.644 96.2973 324.763 96.1913C326.27 94.8463 327.874 95.2533 327.942 95.2723C328.187 95.3373 328.437 95.1933 328.501 94.9483C328.565 94.7033 328.421 94.4523 328.177 94.3843C328.088 94.3623 326.039 93.8163 324.15 95.5013C323.961 95.6693 323.946 95.9603 324.115 96.1513C324.178 96.2203 324.257 96.2673 324.341 96.2903Z" fill="#232323"/>
<path d="M218.442 154.038L214.099 165.884C213.309 168.038 211.556 169.509 209.387 169.837L151.723 178.572C148.002 179.136 145.801 182.954 146.808 187.1L166.998 270.253C168.005 274.399 171.837 277.303 175.559 276.739L312.833 255.945C316.554 255.381 318.755 251.563 317.748 247.417L293.42 147.224C292.413 143.078 288.581 140.174 284.859 140.738L223.153 150.085C220.985 150.413 219.231 151.885 218.442 154.038Z" fill="#FFA000"/>
<path opacity="0.3" d="M218.442 154.038L214.099 165.884C213.309 168.038 211.556 169.509 209.387 169.837L151.723 178.572C148.002 179.136 145.801 182.954 146.808 187.1L166.998 270.253C168.005 274.399 171.837 277.303 175.559 276.739L312.833 255.945C316.554 255.381 318.755 251.563 317.748 247.417L293.42 147.224C292.413 143.078 288.581 140.174 284.859 140.738L223.153 150.085C220.985 150.413 219.231 151.885 218.442 154.038Z" fill="black"/>
<path d="M188.851 32.4622C190.218 32.4622 191.567 32.5352 192.897 32.6732C201.742 20.4512 216.115 12.4922 232.355 12.4922C252.985 12.4922 270.604 25.3292 277.696 43.4452C293.475 46.1352 305.489 59.8672 305.489 76.4122C305.489 94.8882 290.511 109.866 272.035 109.866H188.85C167.475 109.866 150.148 92.5382 150.148 71.1642C150.149 49.7892 167.476 32.4622 188.851 32.4622Z" fill="#FFA000"/>
<path d="M192.437 96.3333V192.823H263.202V117.337L242.198 96.3333H192.437Z" fill="#FFA000"/>
<path opacity="0.6" d="M192.437 96.3333V192.823H263.202V117.337L242.198 96.3333H192.437Z" fill="white"/>
<path opacity="0.4" d="M242.198 117.337V96.3333L263.202 117.337H242.198Z" fill="#FFA000"/>
<path d="M194.706 276.397L189.693 277.154L189.843 278.149L194.856 277.392L194.706 276.397Z" fill="#FFA000"/>
<path d="M217.84 272.897L200.33 275.543L200.481 276.537L217.99 273.892L217.84 272.897Z" fill="#FFA000"/>
<path d="M243.677 163.516L237.148 174.412C235.961 176.393 233.972 177.762 231.803 178.091L174.139 186.826C170.418 187.39 167.537 190.912 167.704 194.693L171.054 270.529C171.221 274.31 174.373 276.919 178.094 276.355L315.369 255.561C319.09 254.997 321.971 251.475 321.804 247.694L317.767 156.317C317.6 152.536 314.448 149.927 310.727 150.491L249.021 159.838C246.854 160.166 244.864 161.535 243.677 163.516Z" fill="#FFA000"/>
<path d="M245.686 82.3402C245.368 82.3402 245.051 82.2192 244.808 81.9762C244.323 81.4912 244.323 80.7052 244.808 80.2202C254.175 70.8522 254.175 55.6102 244.808 46.2422C240.27 41.7042 234.236 39.2052 227.819 39.2052C221.402 39.2052 215.368 41.7042 210.83 46.2422C206.292 50.7802 203.793 56.8132 203.793 63.2312C203.793 69.6492 206.292 75.6822 210.83 80.2202C211.315 80.7052 211.315 81.4912 210.83 81.9762C210.346 82.4602 209.559 82.4602 209.075 81.9762C204.068 76.9692 201.31 70.3122 201.31 63.2312C201.31 56.1502 204.067 49.4932 209.075 44.4862C214.082 39.4792 220.739 36.7222 227.819 36.7222C234.9 36.7222 241.557 39.4792 246.564 44.4862C256.9 54.8222 256.9 71.6402 246.564 81.9762C246.321 82.2192 246.004 82.3402 245.686 82.3402Z" fill="white"/>
<path d="M238.452 89.7712V62.0992C238.452 59.6052 236.431 57.5842 233.937 57.5842H221.7C219.207 57.5842 217.185 59.6052 217.185 62.0992V89.7712H212.583L227.818 102.895L243.054 89.7712H238.452Z" fill="white"/>
<path d="M361.8 158.513L361.193 159.887L360.619 161.141C360.234 161.967 359.824 162.77 359.42 163.576C358.614 165.186 357.735 166.75 356.85 168.315C355.045 171.423 353.123 174.485 350.964 177.449C349.885 178.933 348.779 180.407 347.602 181.859C346.404 183.297 345.175 184.722 343.851 186.117C341.23 188.92 338.264 191.588 334.757 193.995L334.068 194.468C333.718 194.708 333.323 194.911 332.944 195.059C328.786 196.653 325.325 196.929 322.003 197.123C318.705 197.274 315.589 197.049 312.551 196.744C309.517 196.386 306.561 195.896 303.655 195.246C300.728 194.581 297.941 193.848 295.006 192.814C292.268 191.85 290.829 188.848 291.794 186.109C292.502 184.1 294.307 182.79 296.299 182.617L296.515 182.6L304.622 181.906C307.317 181.665 309.977 181.405 312.56 181.06C313.849 180.886 315.117 180.719 316.355 180.506C317.586 180.284 318.783 180.036 319.925 179.791C322.161 179.281 324.287 178.518 325.294 177.866L323.481 178.929C325.297 177.307 327.101 175.263 328.862 173.043C329.74 171.933 330.588 170.745 331.421 169.54C332.272 168.344 333.093 167.094 333.899 165.828C335.493 163.276 337.07 160.654 338.552 157.958C339.309 156.619 340.021 155.252 340.75 153.902L342.78 149.984L343.024 149.513C345.67 144.406 351.957 142.41 357.064 145.057C361.971 147.596 363.992 153.525 361.8 158.513Z" fill="#965B2F"/>
<path d="M364.984 140.839C369.793 158.119 357.583 175.295 357.583 175.295C351.108 177.149 334.062 170.505 330.443 164.147C330.443 164.147 336.385 147.809 343.452 139.123C349.994 131.08 362.166 130.712 364.984 140.839Z" fill="#232323"/>
<path d="M298.314 183.01L299.266 189.105C297.933 195.448 290.074 192.323 290.074 192.323L285.688 192.347C284.201 192.355 282.907 191.118 282.629 189.423L281.931 185.167C281.612 183.227 282.73 181.397 284.409 181.109L288.181 180.463C289.279 180.275 290.406 180.362 291.462 180.715L298.314 183.01Z" fill="#965B2F"/>
</svg>
