<svg width="487" height="335" viewBox="0 0 487 335" fill="none" xmlns="http://www.w3.org/2000/svg">
<path d="M389.714 114.122L408.459 108.131L409.05 93.043C413.542 89.642 417.301 85.461 420.199 80.762L434.906 79.987L439.205 60.232L426.583 51.458C426.241 48.744 425.658 46.023 424.795 43.323C423.932 40.623 422.828 38.069 421.534 35.659L427.255 21.669L412.154 7.939L399.34 15.488C394.254 13.341 388.766 12.114 383.135 11.949L373.904 0L355.159 5.99L354.568 21.078C350.076 24.479 346.317 28.66 343.419 33.359L328.643 34.448L324.303 54.391L337.035 62.662C337.378 65.376 337.96 68.097 338.823 70.797C339.686 73.497 340.79 76.051 342.084 78.461L335.49 91.656L350.902 105.669L364.278 98.631C369.364 100.779 374.852 102.005 380.483 102.17L389.714 114.122ZM356.439 65.169C351.961 51.157 359.69 36.169 373.702 31.691C387.714 27.213 402.702 34.942 407.18 48.954C411.658 62.966 403.929 77.954 389.917 82.432C375.905 86.91 360.916 79.181 356.439 65.169Z" fill="#FD9F00"/>
<path d="M438.834 184.301L452.304 179.996L452.729 169.154C455.957 166.71 458.658 163.706 460.741 160.329L471.31 159.773L474.399 145.577L465.329 139.272C465.083 137.322 464.664 135.366 464.044 133.426C463.424 131.486 462.631 129.65 461.7 127.919L465.811 117.866L454.959 108L445.751 113.425C442.096 111.882 438.153 111.001 434.106 110.882L427.473 102.296L414.003 106.601L413.578 117.443C410.35 119.887 407.649 122.891 405.566 126.268L394.948 127.051L391.829 141.382L400.978 147.325C401.224 149.275 401.643 151.231 402.263 153.171C402.883 155.111 403.676 156.947 404.607 158.678L399.868 168.16L410.943 178.23L420.555 173.172C424.21 174.715 428.153 175.596 432.2 175.715L438.834 184.301ZM414.923 149.124C411.705 139.055 417.259 128.285 427.328 125.067C437.397 121.849 448.167 127.403 451.385 137.472C454.603 147.541 449.049 158.311 438.98 161.529C428.911 164.746 418.141 159.193 414.923 149.124Z" fill="#FD9F00"/>
<path d="M43.3677 166.753L49.1787 179.645L59.9987 178.832C62.7937 181.76 66.0867 184.102 69.6787 185.786L71.4357 196.222L85.8907 197.674L91.1217 187.945C93.0317 187.478 94.9267 186.84 96.7827 186.003C98.6397 185.166 100.373 184.169 101.987 183.047L112.443 185.986L121.009 174.081L114.57 165.551C115.687 161.744 116.113 157.726 115.77 153.692L123.545 146.124L117.734 133.232L106.914 134.045C104.119 131.117 100.826 128.775 97.2337 127.091L95.2467 116.632L80.6537 115.166L75.7917 124.932C73.8817 125.399 71.9867 126.037 70.1307 126.874C68.2747 127.711 66.5407 128.708 64.9257 129.83L54.9657 126.202L46.2227 138.352L52.3427 147.326C51.2257 151.133 50.7997 155.151 51.1427 159.185L43.3677 166.753ZM75.5917 138.99C85.2287 134.646 96.5617 138.937 100.906 148.574C105.25 158.211 100.959 169.544 91.3217 173.888C81.6847 178.232 70.3517 173.941 66.0077 164.304C61.6647 154.667 65.9547 143.333 75.5917 138.99Z" fill="#F8CA13"/>
<path d="M290.646 91.572C283.35 91.572 277.414 97.507 277.414 104.804V151.544C278.772 152.856 280.155 154.144 281.529 155.441V104.804C281.529 99.777 285.619 95.687 290.646 95.687H316.587V91.573L290.646 91.572Z" fill="#F89D13"/>
<path d="M82.9637 201.141C75.6677 201.141 69.7317 207.076 69.7317 214.373V261.113C71.0897 262.425 72.4727 263.713 73.8467 265.01V214.373C73.8467 209.346 77.9367 205.256 82.9637 205.256H108.905V201.142H82.9637V201.141Z" fill="#F89D13"/>
<path d="M198.017 96.3391V92.0361H162.101C154.805 92.0361 148.87 97.9711 148.87 105.268V235.987C146.114 236.185 144.117 236.768 144.117 237.458C144.117 238.31 147.166 239.001 150.927 239.001C154.688 239.001 157.738 238.31 157.738 237.458C157.738 236.768 155.74 236.185 152.985 235.987V105.268C152.985 100.241 157.075 96.1511 162.102 96.1511H188.043V96.3391H198.017Z" fill="#F89D13"/>
<path d="M274.237 235.987V105.268C274.237 97.9721 268.302 92.0361 261.006 92.0361H167.936V96.3391H250.994V96.1511H261.005C266.032 96.1511 270.122 100.241 270.122 105.268V235.987C267.367 236.185 265.369 236.768 265.369 237.458C265.369 238.31 268.418 239.001 272.179 239.001C275.941 239.001 278.99 238.31 278.99 237.458C278.99 236.768 276.993 236.185 274.237 235.987Z" fill="#F89D13"/>
<path d="M435.47 153.288H311.695C310.465 153.288 309.468 152.291 309.468 151.061V59.8291C309.468 58.5991 310.465 57.6021 311.695 57.6021H435.47C436.7 57.6021 437.697 58.5991 437.697 59.8291V151.061C437.697 152.291 436.7 153.288 435.47 153.288Z" fill="black"/>
<path d="M433.114 151.081H314.051C312.887 151.081 311.943 150.137 311.943 148.973V71.3011C311.943 70.1371 312.887 69.1931 314.051 69.1931H433.115C434.279 69.1931 435.223 70.1371 435.223 71.3011V148.973C435.222 150.137 434.279 151.081 433.114 151.081Z" fill="#DFE9F7"/>
<path d="M375.371 115.878H317.477C316.131 115.878 315.04 114.787 315.04 113.441V75.5351C315.04 74.1891 316.131 73.0981 317.477 73.0981H375.371C376.717 73.0981 377.808 74.1891 377.808 75.5351V113.441C377.808 114.787 376.717 115.878 375.371 115.878Z" fill="white"/>
<path d="M433.292 149.684H380.855C380.769 149.684 380.698 149.614 380.698 149.527V73.2542C380.698 73.1682 380.768 73.0972 380.855 73.0972H433.292C433.378 73.0972 433.449 73.1672 433.449 73.2542V149.527C433.448 149.614 433.378 149.684 433.292 149.684Z" fill="white"/>
<path d="M377.651 149.684H315.196C315.11 149.684 315.039 149.614 315.039 149.527V120.246C315.039 120.16 315.109 120.089 315.196 120.089H377.651C377.737 120.089 377.808 120.159 377.808 120.246V149.527C377.808 149.614 377.738 149.684 377.651 149.684Z" fill="white"/>
<path d="M320.394 62.7358C320.531 61.8885 319.955 61.0907 319.107 60.9538C318.26 60.8169 317.462 61.3928 317.325 62.2401C317.189 63.0873 317.764 63.8851 318.612 64.022C319.459 64.1589 320.257 63.5831 320.394 62.7358Z" fill="white"/>
<path d="M326.257 62.7356C326.394 61.8883 325.818 61.0905 324.971 60.9536C324.123 60.8167 323.325 61.3926 323.189 62.2398C323.052 63.0871 323.628 63.8849 324.475 64.0218C325.322 64.1587 326.12 63.5828 326.257 62.7356Z" fill="white"/>
<path d="M332.12 62.7358C332.257 61.8885 331.681 61.0907 330.834 60.9538C329.986 60.8169 329.188 61.3928 329.052 62.2401C328.915 63.0873 329.491 63.8851 330.338 64.022C331.185 64.1589 331.983 63.5831 332.12 62.7358Z" fill="white"/>
<path d="M35.4026 104.935H39.1206V108.666C39.1206 109.469 39.7726 110.115 40.5756 110.115C41.3826 110.115 42.0276 109.47 42.0276 108.666V104.935H45.7486C46.5516 104.935 47.2006 104.296 47.2006 103.493C47.2006 102.69 46.5516 102.031 45.7486 102.031H42.0276V98.3169C42.0276 97.5139 41.3826 96.8579 40.5756 96.8579C39.7726 96.8579 39.1206 97.5129 39.1206 98.3169V102.031H35.4026C34.5996 102.031 33.9476 102.689 33.9476 103.493C33.9476 104.297 34.5996 104.935 35.4026 104.935Z" fill="#FFA000"/>
<path d="M262.57 29.2821H266.288V33.0131C266.288 33.8161 266.94 34.4621 267.743 34.4621C268.55 34.4621 269.195 33.8171 269.195 33.0131V29.2821H272.916C273.719 29.2821 274.368 28.6431 274.368 27.8401C274.368 27.0371 273.719 26.3781 272.916 26.3781H269.195V22.6641C269.195 21.8611 268.55 21.2051 267.743 21.2051C266.94 21.2051 266.288 21.8601 266.288 22.6641V26.3781H262.57C261.767 26.3781 261.115 27.0361 261.115 27.8401C261.115 28.6431 261.767 29.2821 262.57 29.2821Z" fill="#FFA000"/>
<path d="M58.9627 83.0179C58.9627 79.4389 56.0487 76.5249 52.4727 76.5249C48.8937 76.5249 45.9827 79.4389 45.9827 83.0179C45.9827 86.5939 48.8937 89.5109 52.4727 89.5109C56.0487 89.5109 58.9627 86.5939 58.9627 83.0179ZM56.4727 83.0179C56.4727 85.2239 54.6787 87.0219 52.4717 87.0219C50.2627 87.0219 48.4707 85.2239 48.4707 83.0179C48.4707 80.8089 50.2617 79.0169 52.4717 79.0169C54.6787 79.0169 56.4727 80.8079 56.4727 83.0179Z" fill="#FFA000"/>
<path d="M289.084 328.223C289.084 324.644 286.17 321.73 282.594 321.73C279.015 321.73 276.104 324.644 276.104 328.223C276.104 331.799 279.015 334.716 282.594 334.716C286.17 334.716 289.084 331.799 289.084 328.223ZM286.595 328.223C286.595 330.429 284.801 332.227 282.594 332.227C280.385 332.227 278.593 330.429 278.593 328.223C278.593 326.013 280.384 324.222 282.594 324.222C284.8 324.222 286.595 326.013 286.595 328.223Z" fill="#FFA000"/>
<path d="M296.072 14.972C296.072 11.393 293.158 8.479 289.582 8.479C286.003 8.479 283.092 11.393 283.092 14.972C283.092 18.548 286.003 21.465 289.582 21.465C293.159 21.466 296.072 18.548 296.072 14.972ZM293.583 14.972C293.583 17.178 291.789 18.976 289.582 18.976C287.373 18.976 285.581 17.178 285.581 14.972C285.581 12.762 287.372 10.971 289.582 10.971C291.789 10.972 293.583 12.763 293.583 14.972Z" fill="#FFA000"/>
<path d="M126.941 36.098C127.85 36.098 128.578 35.3569 128.578 34.4549C128.578 33.5429 127.85 32.825 126.941 32.825H110.58C109.674 32.825 108.94 33.5429 108.94 34.4549C108.94 35.3569 109.674 36.098 110.58 36.098H126.941Z" fill="#FFA000"/>
<path d="M103.566 36.098C104.465 36.098 105.203 35.3569 105.203 34.4549C105.203 33.5429 104.465 32.825 103.566 32.825H100.563C99.6567 32.825 98.9297 33.5429 98.9297 34.4549C98.9297 35.3569 99.6577 36.098 100.563 36.098H103.566Z" fill="#FFA000"/>
<path d="M357.973 322.444C358.882 322.444 359.61 321.703 359.61 320.801C359.61 319.889 358.882 319.171 357.973 319.171H341.612C340.706 319.171 339.972 319.889 339.972 320.801C339.972 321.703 340.706 322.444 341.612 322.444H357.973Z" fill="#FFA000"/>
<path d="M328.568 322.444C329.467 322.444 330.205 321.703 330.205 320.801C330.205 319.889 329.467 319.171 328.568 319.171H325.565C324.659 319.171 323.932 319.889 323.932 320.801C323.932 321.703 324.66 322.444 325.565 322.444H328.568Z" fill="#FFA000"/>
<path d="M426.247 195.087C426.247 195.087 454.983 211.545 446.339 233.169C445.909 233.88 445.914 239.537 448.304 243.163C450.254 246.12 451.437 249.521 451.472 253.063C451.521 258.11 450.572 264.899 446.342 271.065C446.39 271.073 432.251 258.194 432.402 249.282C432.553 240.37 437.576 232.115 427.51 223.863C417.443 215.611 416.765 199.286 418.771 196.003C420.777 192.72 426.247 195.087 426.247 195.087Z" fill="#448C8C"/>
<path d="M418.347 194.805C418.375 194.637 418.435 194.472 418.53 194.318C418.919 193.691 419.743 193.498 420.371 193.887C431.041 200.508 438.18 209.385 441.591 220.271C444.433 229.343 443.901 237.62 443.331 241.746C443.102 243.404 443.457 245.103 444.357 246.659C449.037 254.743 447.731 270.513 447.673 271.18C447.607 271.918 446.961 272.46 446.226 272.396C445.491 272.332 444.946 271.685 445.01 270.949C445.023 270.794 446.301 255.35 442.044 247.998C440.842 245.922 440.372 243.633 440.683 241.38C441.898 232.589 442.213 210.585 418.962 196.158C418.488 195.865 418.262 195.323 418.347 194.805Z" fill="#307175"/>
<path d="M477.521 230.643C477.521 230.643 470.644 225.261 470.423 221.269C470.202 217.277 464.524 204.62 456.753 204.658C456.206 204.421 448.484 205.051 446.547 198.14C444.61 191.229 424.954 189.6 419.99 191.272C419.705 191.225 444.612 219.651 444.612 219.651C444.612 219.651 452.196 221.634 456.304 219.821C460.412 218.008 463.325 226.106 463.325 226.106C463.325 226.106 467.282 232.325 477.521 230.643Z" fill="#307175"/>
<path d="M484.724 186.952C484.724 186.952 473.823 201.541 455.083 196.715C444.308 193.94 439.738 194.273 437.8 195.057C435.054 196.168 432.14 196.798 429.181 196.663C424.859 196.466 419.442 195.629 415.454 193.013C407.698 187.926 423.837 176.523 432.713 178.376C441.588 180.23 441.756 183.953 449.449 181.127C457.142 178.301 460.189 181.148 466.026 184.845C471.863 188.543 484.724 186.952 484.724 186.952Z" fill="#448C8C"/>
<path d="M411.956 187.779C411.977 187.651 412.017 187.524 412.078 187.403C412.406 186.742 413.208 186.471 413.869 186.798C422.511 191.079 433.663 187.269 434.747 186.881C435.807 186.309 442.833 183.028 455.964 188.347C468.758 193.529 483.96 185.842 484.112 185.764C484.768 185.426 485.574 185.684 485.912 186.34C486.25 186.995 485.993 187.801 485.337 188.14C484.673 188.483 468.906 196.473 454.96 190.825C442.331 185.71 436.048 189.214 435.986 189.25C435.923 189.287 435.847 189.324 435.779 189.35C435.252 189.55 422.762 194.188 412.681 189.194C412.143 188.926 411.863 188.344 411.956 187.779Z" fill="#307175"/>
<path d="M457.784 147.176C457.784 147.176 456.526 163.102 443.316 165.027C434.42 166.323 431.868 171.589 431.151 174.889C430.348 178.581 428.403 181.958 425.434 184.295C422.375 186.703 417.958 188.59 412.013 187.486C412.013 187.486 417.876 175.97 415.665 171.016C413.454 166.061 420.795 151.156 433.534 152.084C446.273 153.012 453.819 152.266 457.784 147.176Z" fill="#307175"/>
<path d="M418.023 189.003C418.023 189.003 427.756 197.249 418.709 205.915C418.393 206.644 411.252 214.843 418.457 223.649C417.358 224.083 406.806 220.415 404.985 210.014C404.169 205.353 405.429 200.567 408.283 196.793C410.462 193.912 413.046 189.882 411.863 187.011C412.559 186.345 418.023 189.003 418.023 189.003Z" fill="#448C8C"/>
<path d="M411.595 187.319C411.633 187.091 411.73 186.869 411.889 186.68C412.362 186.116 413.2 186.04 413.765 186.511C413.854 186.585 422.615 194.09 414.353 205.356C409.075 212.552 418.979 222.637 419.08 222.738C419.601 223.261 419.599 224.108 419.077 224.628C418.554 225.149 417.708 225.148 417.187 224.625C416.71 224.146 405.58 212.8 412.198 203.775C418.945 194.575 412.335 188.803 412.051 188.562C411.679 188.246 411.521 187.769 411.595 187.319Z" fill="#307175"/>
<path d="M72.7187 229.573C72.7187 229.573 49.3727 210.286 33.6527 224.653C33.1827 225.25 28.3397 227.069 24.4667 226.192C21.3077 225.477 18.0157 225.56 14.9737 226.672C10.6387 228.256 5.1357 231.257 1.2217 236.864C1.1997 236.826 16.7777 244.774 24.3557 241.773C31.9337 238.772 37.3787 231.812 47.6857 237.767C57.9927 243.722 72.1807 239.041 74.3437 236.266C76.5077 233.491 72.7187 229.573 72.7187 229.573Z" fill="#448C8C"/>
<path d="M75.5067 236.242C75.6417 236.164 75.7636 236.059 75.8636 235.928C76.2746 235.393 76.1746 234.625 75.6396 234.214C66.5346 227.217 56.6366 223.968 46.2216 224.558C37.5416 225.05 30.6307 228.173 27.2826 229.991C25.9376 230.721 24.3697 230.965 22.7477 230.696C14.3217 229.296 1.24665 235.497 0.694649 235.762C0.0846488 236.056 -0.171351 236.783 0.120649 237.392C0.412649 238.001 1.14165 238.258 1.75065 237.967C1.87865 237.906 14.6836 231.835 22.3476 233.108C24.5116 233.467 26.6216 233.132 28.4496 232.14C35.5806 228.267 54.3097 220.905 74.1507 236.153C74.5547 236.463 75.0907 236.482 75.5067 236.242Z" fill="#307175"/>
<path d="M11.0137 187.27C11.0137 187.27 19.8347 192.637 24.3437 191.218C28.8527 189.799 45.2237 190.807 48.4207 199.421C48.9107 199.928 51.4317 208.734 59.8857 207.998C68.3397 207.261 78.3337 228.331 78.5517 234.52C78.7227 234.816 36.8907 219.103 36.8907 219.103C36.8907 219.103 31.5357 211.538 31.8307 206.237C32.1247 200.936 21.9507 201.087 21.9507 201.087C21.9507 201.087 13.4207 199.301 11.0137 187.27Z" fill="#307175"/>
<path d="M56.3547 161.093C56.3547 161.093 44.7547 179.235 57.9037 197.958C65.4647 208.724 67.0007 213.919 66.9407 216.39C66.8567 219.891 67.3727 223.378 68.7547 226.596C70.7737 231.297 73.9577 236.941 78.5137 240.264C87.3747 246.726 93.2667 224.116 87.5167 215.068C81.7667 206.02 77.5777 207.387 77.4977 197.697C77.4177 188.007 72.9987 185.822 66.4757 180.905C59.9547 175.987 56.3547 161.093 56.3547 161.093Z" fill="#448C8C"/>
<path d="M85.7656 241.953C85.8976 241.877 86.0216 241.779 86.1316 241.662C86.7266 241.024 86.6926 240.024 86.0546 239.428C77.7156 231.649 77.2846 217.723 77.2626 216.362C77.4536 214.95 78.1556 205.81 66.7986 193.497C55.7336 181.5 57.9036 161.476 57.9266 161.275C58.0266 160.408 57.4056 159.624 56.5396 159.523C55.6736 159.422 54.8886 160.042 54.7876 160.909C54.6846 161.787 52.4146 182.562 64.4766 195.639C75.3996 207.481 74.1406 215.893 74.1266 215.976C74.1126 216.061 74.1026 216.161 74.1026 216.247C74.1006 216.913 74.1746 232.666 83.9006 241.739C84.4176 242.225 85.1796 242.292 85.7656 241.953Z" fill="#307175"/>
<path d="M111.594 174.326C111.594 174.326 94.4957 182.355 97.8717 197.773C100.145 208.156 95.3817 213.174 92.0287 215.344C88.2787 217.771 85.3517 221.331 84.0027 225.589C82.6127 229.978 82.3667 235.65 86.0647 241.769C86.0647 241.769 96.3627 230.483 102.767 230.864C109.171 231.245 122.604 216.912 116.268 203.203C109.933 189.494 107.614 180.834 111.594 174.326Z" fill="#307175"/>
<path d="M81.8816 235.751C81.8816 235.751 68.7016 228.418 62.8826 242.04C62.2076 242.693 56.1116 254.012 43.3656 249.709C43.3436 251.106 51.7996 261.253 64.0676 258.933C69.5656 257.894 74.3356 254.505 77.3216 249.774C79.6016 246.162 82.9836 241.624 86.6536 241.736C87.1006 240.688 81.8816 235.751 81.8816 235.751Z" fill="#448C8C"/>
<path d="M88.1387 239.16C88.1387 239.16 95.6017 239.325 99.7377 235.095C103.874 230.865 112.173 234.757 112.173 234.757C112.173 234.757 105.794 215.961 93.6367 225.667C81.4797 235.374 88.1387 239.16 88.1387 239.16Z" fill="#448C8C"/>
<path d="M86.4236 242.161C86.6606 242.024 86.8646 241.824 87.0086 241.569C87.4346 240.81 87.1706 239.852 86.4136 239.422C86.2946 239.354 74.3396 232.788 65.3166 246.625C59.5536 255.464 44.2676 248.708 44.1146 248.639C43.3186 248.281 42.3826 248.635 42.0246 249.43C41.6656 250.226 42.0206 251.162 42.8156 251.52C43.5436 251.848 60.7366 259.435 67.9646 248.351C75.3326 237.052 84.4736 241.96 84.8596 242.174C85.3636 242.454 85.9576 242.43 86.4236 242.161Z" fill="#307175"/>
<path d="M112.962 236.126C113.022 236.091 113.081 236.052 113.137 236.009C113.829 235.477 113.958 234.484 113.426 233.793C108.466 227.347 101.325 225.599 95.2166 229.324C92.0876 231.237 86.1696 236.636 85.9186 236.865C85.2746 237.454 85.2296 238.453 85.8186 239.098C86.4076 239.742 87.4056 239.789 88.0516 239.198C88.1106 239.144 93.9946 233.776 96.8656 232.021C96.9416 231.974 97.0186 231.929 97.0956 231.884C101.678 229.239 107.077 230.726 110.921 235.721C111.409 236.356 112.286 236.516 112.962 236.126Z" fill="#307175"/>
<path d="M248.33 86.704C248.092 85.797 247.618 85.023 246.782 84.533C245.591 83.836 244.082 84.037 242.774 83.599C239.889 82.633 239.116 78.117 241.516 76.246C242.723 75.305 244.441 75.008 245.331 73.762C246.534 72.077 245.551 69.757 244.552 67.944C243.72 66.433 242.887 64.922 242.055 63.411C240.921 61.352 239.172 58.975 236.855 59.373C235.546 59.598 234.566 60.684 233.347 61.211C230.485 62.447 226.811 59.505 227.392 56.442C227.709 54.773 229.002 53.249 228.688 51.58C228.391 49.999 226.792 49.058 225.334 48.377C223.525 47.532 221.679 46.765 219.804 46.081C217.315 45.173 213.927 44.695 212.551 46.959C212.015 47.841 211.963 48.933 211.559 49.883C210.423 52.551 206.189 53.108 204.401 50.826C203.487 49.659 203.253 48.104 202.55 46.799C201.59 45.018 199.785 44.573 197.997 45.266C195.776 46.127 193.382 46.314 191.138 47.088C188.619 47.957 186.134 50.195 186.548 52.827C186.712 53.869 187.313 54.796 187.527 55.828C188.115 58.657 184.946 61.515 182.192 60.639C180.428 60.078 179.031 58.354 177.181 58.413C175.363 58.47 174.116 60.203 173.166 61.754C172.253 63.244 171.34 64.734 170.428 66.224C169.143 68.321 167.898 71.17 169.508 73.028C170.342 73.99 171.694 74.306 172.715 75.068C174.065 76.076 174.734 77.917 174.345 79.557C173.956 81.197 172.532 82.542 170.873 82.836C169.96 82.998 168.998 82.869 168.118 83.159C165.568 84 165.32 87.483 165.717 90.139C166.016 92.137 166.406 94.122 166.886 96.085C167.262 97.623 167.863 99.347 169.332 99.938C170.889 100.564 172.614 99.599 174.292 99.608C177.263 99.624 179.448 103.439 177.958 106.01C177.147 107.408 175.552 108.344 175.143 109.908C174.349 112.944 178.453 115.669 181.951 118.708C183.532 120.081 185.61 121.546 187.537 120.727C188.968 120.119 189.642 118.482 190.838 117.488C193.214 115.514 197.52 117.212 197.909 120.276C198.098 121.769 197.52 123.374 198.14 124.745C198.99 126.627 201.484 126.942 203.548 126.988C205.22 127.026 206.892 127.064 208.564 127.102C210.996 127.157 214.041 126.817 214.86 124.527C215.303 123.289 214.873 121.912 215.043 120.609C215.432 117.628 219.582 115.952 221.933 117.826C223.343 118.95 224.073 120.973 225.792 121.519C227.446 122.044 229.13 120.927 230.507 119.871C231.838 118.85 233.17 117.828 234.501 116.807C235.594 115.969 236.71 115.105 237.446 113.941C238.182 112.777 238.473 111.231 237.821 110.018C237.351 109.143 236.475 108.566 235.865 107.781C234.846 106.47 234.669 104.56 235.43 103.085C236.191 101.61 237.85 100.646 239.509 100.717C241.02 100.781 242.51 101.622 243.977 101.252C246.015 100.738 246.779 98.297 247.198 96.237C247.534 94.586 247.87 92.935 248.206 91.284C248.501 89.816 248.697 88.103 248.33 86.704ZM206.483 71.56C208.737 71.469 210.871 71.901 212.789 72.811C214.271 73.41 215.626 74.343 216.8 75.472C219.391 77.908 220.985 81.277 221.138 85.081C221.314 89.448 219.5 93.473 216.458 96.182C215.232 97.266 213.857 98.168 212.281 98.749C210.848 99.371 209.262 99.717 207.619 99.783C200.622 100.065 194.543 95.135 193.238 88.415C193.069 87.716 192.992 86.967 192.961 86.216C192.925 85.324 192.983 84.428 193.135 83.528C194.096 76.998 199.627 71.836 206.483 71.56Z" fill="#E0850B"/>
<path d="M207.759 64.2899C195.791 64.0829 185.921 73.6169 185.714 85.5859C185.507 97.5539 195.041 107.424 207.01 107.631C218.978 107.838 228.848 98.3039 229.055 86.3349C229.262 74.3659 219.727 64.4969 207.759 64.2899Z" fill="white"/>
<path d="M176.948 300.723H92.3286V304.831H176.948V300.723Z" fill="#FFA000"/>
<path d="M183.827 185.57H87.7065V283.06H183.827V185.57Z" fill="#FFA000"/>
<path d="M183.163 157.774H88.3726C88.0056 157.774 87.7076 158.072 87.7076 158.439V185.569H183.828V158.439C183.828 158.072 183.53 157.774 183.163 157.774Z" fill="#FFA000"/>
<path d="M198.205 172.973H73.3296V209.121H198.205V172.973Z" fill="black"/>
<path d="M179.925 184.2H92.0195V197.892H179.925V184.2Z" fill="#FFA000"/>
<path d="M176.592 186.117H94.9426V195.976H176.592V186.117Z" fill="white"/>
<path d="M176.592 191.047L94.9426 186.117H176.592V191.047Z" fill="#E6E7E8"/>
<path d="M183.828 214.05L87.7065 209.121H183.828V214.05Z" fill="#E6E7E8"/>
<path d="M183.828 261.02L87.7065 256.091H183.828V261.02Z" fill="#E6E7E8"/>
<path d="M176.947 303.484L94.5876 301.681H176.947V303.484Z" fill="#E6E7E8"/>
<path d="M82.7775 194.128C84.4791 194.128 85.8585 192.748 85.8585 191.047C85.8585 189.345 84.4791 187.966 82.7775 187.966C81.0759 187.966 79.6965 189.345 79.6965 191.047C79.6965 192.748 81.0759 194.128 82.7775 194.128Z" fill="#FFA000"/>
<path d="M189.784 194.128C191.485 194.128 192.865 192.748 192.865 191.047C192.865 189.345 191.485 187.966 189.784 187.966C188.082 187.966 186.703 189.345 186.703 191.047C186.703 192.748 188.082 194.128 189.784 194.128Z" fill="#FFA000"/>
<path d="M198.205 265.533H73.3296V301.681H198.205V265.533Z" fill="black"/>
<path d="M179.925 276.761H92.0195V290.453H179.925V276.761Z" fill="#FFA000"/>
<path d="M176.592 278.678H94.9426V288.537H176.592V278.678Z" fill="white"/>
<path d="M82.7775 286.688C84.4791 286.688 85.8585 285.308 85.8585 283.607C85.8585 281.905 84.4791 280.526 82.7775 280.526C81.0759 280.526 79.6965 281.905 79.6965 283.607C79.6965 285.308 81.0759 286.688 82.7775 286.688Z" fill="#FFA000"/>
<path d="M189.784 286.688C191.485 286.688 192.865 285.308 192.865 283.607C192.865 281.905 191.485 280.526 189.784 280.526C188.082 280.526 186.703 281.905 186.703 283.607C186.703 285.308 188.082 286.688 189.784 286.688Z" fill="#FFA000"/>
<path d="M198.205 219.801H73.3296V255.949H198.205V219.801Z" fill="black"/>
<path d="M179.925 231.028H92.0195V244.72H179.925V231.028Z" fill="#FFA000"/>
<path d="M176.592 232.945H94.9426V242.804H176.592V232.945Z" fill="white"/>
<path d="M85.8036 238.358C86.0745 236.679 84.9323 235.097 83.2525 234.826C81.5727 234.555 79.9914 235.698 79.7205 237.377C79.4496 239.057 80.5917 240.639 82.2715 240.909C83.9513 241.18 85.5327 240.038 85.8036 238.358Z" fill="#FFA000"/>
<path d="M192.777 238.608C193.168 236.952 192.142 235.292 190.486 234.901C188.83 234.51 187.171 235.536 186.78 237.192C186.389 238.848 187.414 240.507 189.07 240.898C190.726 241.289 192.386 240.264 192.777 238.608Z" fill="#FFA000"/>
<path d="M145.515 169.625H173.723C173.97 169.625 174.17 169.425 174.17 169.178V162.698C174.17 162.451 173.97 162.251 173.723 162.251H145.515C145.268 162.251 145.068 162.451 145.068 162.698V169.178C145.068 169.425 145.268 169.625 145.515 169.625Z" fill="white"/>
<path d="M101.693 164.93C101.969 163.753 101.238 162.575 100.061 162.299C98.8843 162.022 97.7063 162.753 97.4301 163.93C97.154 165.107 97.8843 166.285 99.0614 166.561C100.238 166.837 101.416 166.107 101.693 164.93Z" fill="black"/>
<path d="M105.653 166.629C106.862 166.629 107.842 165.649 107.842 164.44C107.842 163.231 106.862 162.251 105.653 162.251C104.444 162.251 103.464 163.231 103.464 164.44C103.464 165.649 104.444 166.629 105.653 166.629Z" fill="black"/>
<path d="M176.592 283.607L94.9426 278.678H176.592V283.607Z" fill="#E6E7E8"/>
<path d="M176.592 237.883L94.9426 232.954H176.592V237.883Z" fill="#E6E7E8"/>
<path d="M174.169 167.18L145.067 162.251H173.642C173.933 162.251 174.169 162.487 174.169 162.778V167.18Z" fill="#E6E7E8"/>
<path d="M416.139 129.088H218.21C214.693 129.088 211.842 131.939 211.842 135.456V262.85H422.506V135.456C422.507 131.939 419.656 129.088 416.139 129.088Z" fill="#FFA000"/>
<path d="M216.618 262.85V135.456C216.618 134.578 217.332 133.864 218.21 133.864H416.139C417.017 133.864 417.731 134.578 417.731 135.456V262.85H216.618Z" fill="black"/>
<path d="M413.751 138.326H220.598V254.713H413.751V138.326Z" fill="white"/>
<path d="M285.425 305.036H317.97H350.516L353.347 303.002H282.594L285.425 305.036Z" fill="black"/>
<path d="M293.429 297.872C293.429 297.872 293.031 301.499 288.432 302.118L282.595 303.002H353.347L347.51 302.118C342.911 301.499 342.513 297.872 342.513 297.872L341.771 290.913L294.279 289.891L293.429 297.872Z" fill="#FFA000"/>
<path d="M294.279 289.891L341.771 290.913L341.043 284.076H294.898L294.279 289.891Z" fill="black"/>
<path d="M211.842 262.85V277.708C211.842 281.225 214.693 284.076 218.21 284.076H294.898H341.042H416.138C419.655 284.076 422.506 281.225 422.506 277.708V262.85H211.842Z" fill="#FFA000"/>
<path d="M328.584 273.663C328.584 274.933 327.554 275.963 326.285 275.963H309.658C308.388 275.963 307.359 274.933 307.359 273.663C307.359 272.393 308.389 271.364 309.658 271.364H326.285C327.554 271.364 328.584 272.393 328.584 273.663Z" fill="black"/>
<path d="M407.782 145.815H228.16V163.669H407.782V145.815Z" fill="#F89D13"/>
<path d="M407.781 170.772H349.35V180.035H407.781V170.772Z" fill="#F89D13"/>
<path d="M407.781 180.036H349.35V247.308H407.781V180.036Z" fill="white"/>
<path d="M343.646 195.684H280.257V205.733H343.646V195.684Z" fill="#F89D13"/>
<path d="M343.646 205.733H280.257V247.308H343.646V205.733Z" fill="white"/>
<path d="M343.646 170.772H228.16V180.035H343.646V170.772Z" fill="#F89D13"/>
<path d="M343.645 180.036V192.88H277.852V247.308H228.16V180.036H343.645Z" fill="white"/>
<path d="M16.5037 307.757C16.5897 307.872 16.6877 307.998 16.7997 308.133L16.8087 308.144C17.5817 309.087 18.9497 310.394 20.8637 310.678C24.3807 311.198 27.6047 307.937 29.0997 305.506C29.8377 304.308 30.1857 303.262 30.3867 302.242V302.233C30.6937 300.667 30.6567 299.164 31.1507 297.267C31.2367 296.939 31.3377 296.597 31.4607 296.244C31.7337 295.451 32.1127 294.586 32.6447 293.626C32.7227 293.485 32.7997 293.35 32.8747 293.221C33.0267 292.962 33.1767 292.721 33.3257 292.497C34.1097 291.293 34.8427 290.549 35.4727 290.086V290.083C35.6677 289.939 35.8517 289.821 36.0277 289.727C36.4787 289.477 36.8587 289.371 37.1457 289.316C38.1427 289.123 38.7057 289.414 40.0197 289.221C41.8987 288.948 43.3267 287.982 44.2667 287.172C43.1547 286.034 30.9277 271.591 29.2927 271.117L21.7147 292.827C19.9777 297.803 18.2397 302.78 16.5037 307.757Z" fill="#363435"/>
<path d="M128.81 328.603H175.793C175.411 327.284 174.544 325.052 172.488 323.287C170.63 321.692 168.7 321.251 166.446 320.765C160.677 319.52 158.414 321.083 154.24 319.48C152.207 318.699 150.762 317.567 149.93 316.822C150.062 316.336 150.364 314.963 149.786 313.374C149.243 311.88 148.234 311.041 147.823 310.736C142.915 311.828 138.007 312.923 133.096 314.015C132.783 314.57 132.478 315.147 132.185 315.745C129.962 320.284 129.075 324.761 128.81 328.603Z" fill="#363435"/>
<path d="M122.785 165.397C127.414 179.576 131.86 194.386 136.032 209.813C145.723 245.65 152.535 279.634 157.277 311.15C155.48 312.97 150.484 317.548 142.47 319.133C133.676 320.872 126.771 317.914 124.537 316.843C123.474 296.83 120.811 273.597 115.171 248.155C111.134 229.943 106.218 213.514 101.09 199.017C101.808 185.914 102.527 172.812 103.245 159.709L122.785 165.397Z" fill="#363435"/>
<path d="M82.9817 161.815L56.5487 242.409C46.6827 251.126 36.8167 259.842 26.9507 268.559C26.9517 270.35 27.1577 277.841 32.9847 284.364C38.7757 290.845 46.1367 291.913 47.9277 292.123C52.1907 289.066 57.9327 284.675 64.3067 278.905C72.2207 271.74 77.5287 266.71 82.7427 259.337C87.1627 253.086 89.9807 244.972 95.4377 229.001C98.9717 218.655 100.473 213.181 103.021 204.938C105.927 195.539 110.358 182.015 116.657 165.548C105.432 164.301 94.2067 163.058 82.9817 161.815Z" fill="#363435"/>
<path d="M92.7177 165.124L56.5487 242.408L82.9817 161.815L92.7177 165.124Z" fill="#363435"/>
<path d="M108.399 89.618C108.399 89.618 103.507 86.098 98.0347 91.08C94.7647 94.058 95.5697 98.345 94.2527 105.256C93.9367 106.915 90.3987 107.396 88.9877 110.287C88.3077 111.681 88.9567 115.557 88.1877 116.539C84.8187 120.84 86.7277 125.484 89.8287 127.107C100.657 132.777 103.268 126.078 106.019 122.481C108.77 118.886 113.563 97.637 108.399 89.618Z" fill="black"/>
<path d="M70.2267 162.4C71.5997 163.195 73.1687 163.564 74.7487 163.55C75.2017 163.546 75.6557 163.511 76.1047 163.445L80.6467 162.785L79.8557 167.574L76.9077 185.424C76.9077 185.424 93.1787 187.546 96.4127 176.127L98.4337 166.222H118.647C118.647 166.222 117.233 177.643 129.36 181.887L125.924 156.722L127.7 146.999L134.175 152.641C136.119 154.335 138.407 155.613 140.903 156.258C144.917 157.296 150.319 156.998 153.515 149.851C159.073 137.42 162.206 121.047 162.206 121.047L154.828 113.468L140.376 134.59L127.822 117.28C127.314 116.581 126.574 116.084 125.734 115.88L109.148 111.862H97.2147L80.1567 116.463C79.1177 116.743 78.2567 117.466 77.8047 118.444C75.4477 123.532 68.0407 139.946 66.5997 148.333C66.5997 148.333 63.6287 158.582 70.2267 162.4Z" fill="#FFA000"/>
<path d="M120.6 136.544C119.966 129.279 112.38 116.466 109.146 111.863H97.2117C97.2117 111.863 103.351 145.639 98.4327 166.223H118.646C118.646 166.223 121.06 141.802 120.6 136.544Z" fill="black"/>
<path d="M120.354 145.698C114.013 147.738 106.2 148.756 100.313 149.26C100.188 155.247 99.6487 161.138 98.4337 166.223H118.647C118.647 166.223 119.792 154.629 120.354 145.698Z" fill="black"/>
<path d="M82.1017 143.812C82.1017 143.812 83.0697 141.392 84.9157 133.518L84.5897 143.647L82.1017 143.812Z" fill="#363435"/>
<path d="M102.839 143.328C102.839 143.328 106.165 141.816 107.227 140.452C108.288 139.088 111.918 137.158 111.918 137.158L111.573 140.147C111.573 140.147 122.741 136.662 124.155 137.218C125.57 137.774 122.841 139.441 122.841 139.441C122.841 139.441 125.469 138.494 125.57 139.043C125.671 139.593 124.761 141.058 124.206 141.462C124.206 141.462 124.913 141.26 124.964 141.967C125.015 142.674 121.326 145.656 118.294 146.818C118.294 146.818 123.014 145.5 122.64 146.818C122.64 146.818 117.688 149.294 115.869 149.85C114.05 150.406 103.414 151.617 103.414 151.617L102.839 143.328Z" fill="#CC724A"/>
<path d="M102.839 143.328L103.412 151.617L105.321 151.393L102.839 143.328Z" fill="#CC724A"/>
<path d="M155.326 113.979L161.004 106.43C161.004 106.43 163.214 103.946 166.31 102.489C170.093 100.708 175.052 97.335 175.052 97.335C175.052 97.335 176.72 98.396 175.052 99.963L170.555 104.309L173.352 106.385C174.462 107.135 174.531 108.807 173.418 109.553C173.36 109.592 173.298 109.629 173.233 109.665C173.233 109.665 173.839 111.484 172.02 112.343C172.02 112.343 172.071 113.657 170.757 114.213C169.443 114.769 167.198 113.91 167.198 113.91C167.198 113.91 166.713 116.614 162.771 117.372L161.033 119.843L155.326 113.979Z" fill="#CC724A"/>
<path d="M165.097 105.572L173.182 104.814C173.182 104.814 173.94 107.037 171.868 107.543C169.796 108.048 167.674 108.857 167.674 108.857C167.674 108.857 168.01 112.041 164.835 112.9L165.097 105.572Z" fill="#CC724A"/>
<path d="M155.326 113.979L162.375 118.028L161.033 119.843L155.326 113.979Z" fill="#CC724A"/>
<path d="M80.6467 162.786L79.8557 167.575C86.1757 165.756 99.9067 156.809 99.9067 156.809L100.616 151.617L81.0987 156.213L80.6467 162.786Z" fill="#363435"/>
<path d="M72.1566 151.063C72.1566 151.063 73.5716 144.898 81.8586 143.887C90.1456 142.876 99.2416 143.584 102.779 142.472L103.492 152.781C103.492 152.781 88.5696 162.18 80.6456 162.786L72.1566 151.063Z" fill="#FFA000"/>
<path d="M106.576 107.108C106.576 107.108 109.622 106.412 111.033 102.651C112.444 98.8899 111.568 92.7539 110.628 91.9079C109.687 91.0609 106.576 107.108 106.576 107.108Z" fill="black"/>
<path d="M99.6786 104.919L98.4276 102.04L99.2846 102.558C99.2846 102.558 99.6916 103.688 99.8486 104.416C100.004 105.143 99.6786 104.919 99.6786 104.919Z" fill="black"/>
<path d="M99.6227 101.619C99.6227 101.946 99.6227 114.537 99.6227 114.537C99.6227 114.537 101.03 116.233 103.131 116.233C105.232 116.233 106.786 114.537 106.786 114.537V106.409L99.6227 101.619Z" fill="#CC724A"/>
<path d="M104.871 108.855C101.541 108.911 99.3366 105.715 99.2836 102.557L99.1986 97.5491C99.1446 94.3911 101.555 91.7891 104.581 91.7381C107.607 91.6871 110.103 94.2051 110.157 97.3631L110.108 102.357C110.161 105.516 108.201 108.799 104.871 108.855Z" fill="#CC724A"/>
<path d="M97.5637 101.409C97.9977 102.305 98.8977 102.766 99.5737 102.439C100.831 101.83 100.326 100.849 99.8927 99.952C99.4587 99.056 98.8507 98.761 98.0037 99.193C97.3337 99.535 97.1297 100.513 97.5637 101.409Z" fill="#CC724A"/>
<path d="M97.8697 100.487C97.8777 100.24 97.9527 99.937 98.1757 99.796C98.3677 99.674 98.6817 99.746 98.7397 99.983C98.7507 100.029 98.6757 100.058 98.6587 100.012C98.6177 99.9 98.4997 99.85 98.3857 99.874C98.2657 99.9 98.1767 100.008 98.1287 100.115C98.0257 100.344 98.0317 100.623 98.0987 100.862C98.1657 101.104 98.3107 101.34 98.5127 101.492C98.6067 101.562 98.7197 101.614 98.8377 101.626C98.9377 101.636 99.0717 101.615 99.1527 101.554C99.1857 101.529 99.2487 101.556 99.2287 101.604C99.1847 101.705 99.1127 101.787 99.0027 101.812C98.8857 101.839 98.7567 101.818 98.6457 101.779C98.3947 101.69 98.1997 101.485 98.0667 101.259C97.9297 101.026 97.8607 100.755 97.8697 100.487Z" fill="#DEAC93"/>
<path d="M106.96 89.369C106.96 89.369 109.405 87.959 111.191 92.942C112.517 96.641 110.145 99.524 110.145 99.524C110.145 99.524 110.321 96.456 109.546 94.834C109.158 94.023 107.853 93.882 107.853 93.882L106.96 89.369Z" fill="black"/>
<path d="M107.853 93.8819C107.853 93.8819 105.208 92.6129 104.08 94.5869C102.952 96.5619 101.788 99.0999 97.8386 99.8059C93.8896 100.511 94.4356 96.1369 98.1026 93.5979C101.771 91.0589 108.423 88.7179 107.853 93.8819Z" fill="black"/>
<path d="M106.804 101.392C106.811 101.392 106.819 101.392 106.827 101.39C107.033 101.361 108.065 101.188 108.124 100.631C108.176 100.144 107.378 98.673 107.218 98.383C107.175 98.306 107.078 98.278 107.001 98.321C106.924 98.364 106.896 98.461 106.939 98.538C107.292 99.175 107.839 100.298 107.807 100.598C107.782 100.829 107.181 101.019 106.782 101.076C106.695 101.088 106.634 101.169 106.647 101.256C106.658 101.335 106.726 101.392 106.804 101.392Z" fill="#B75F3D"/>
<path d="M109.311 98.6168C109.332 98.8888 109.149 99.1238 108.902 99.1428C108.655 99.1618 108.439 98.9568 108.418 98.6848C108.397 98.4128 108.58 98.1778 108.827 98.1588C109.074 98.1408 109.29 98.3458 109.311 98.6168Z" fill="#363435"/>
<path d="M103.726 97.365C103.764 97.365 103.802 97.352 103.832 97.324C104.522 96.705 105.408 97.154 105.417 97.159C105.495 97.199 105.591 97.169 105.632 97.091C105.673 97.013 105.642 96.917 105.564 96.876C105.52 96.853 104.471 96.321 103.619 97.087C103.554 97.146 103.548 97.247 103.607 97.312C103.639 97.347 103.683 97.365 103.726 97.365Z" fill="black"/>
<path d="M108.124 96.9659C108.158 96.9659 108.193 96.9549 108.222 96.9319C108.245 96.9139 108.79 96.4989 109.333 96.8819C109.405 96.9329 109.504 96.9159 109.555 96.8439C109.606 96.7719 109.588 96.6729 109.517 96.6219C108.925 96.2049 108.282 96.4789 108.025 96.6819C107.956 96.7369 107.944 96.8369 107.999 96.9059C108.03 96.9449 108.076 96.9659 108.124 96.9659Z" fill="black"/>
<path d="M105.232 102.331C107.434 102.741 108.372 102.31 108.372 102.31C108.372 102.31 108.501 103.676 107.228 103.844C105.407 104.084 105.232 102.331 105.232 102.331Z" fill="#B75F3D"/>
<path d="M108.297 102.338C108.297 102.338 108.25 102.593 108.231 102.645C108.21 102.695 108.004 102.851 107.112 102.938C106.358 103.012 105.566 102.823 105.341 102.764C105.251 102.52 105.233 102.331 105.233 102.331C105.362 102.355 105.486 102.376 105.607 102.394C107.205 102.641 108.051 102.421 108.297 102.338Z" fill="white"/>
<path d="M105.16 99.601C105.414 99.5815 105.602 99.3389 105.581 99.0592C105.559 98.7794 105.336 98.5685 105.082 98.588C104.828 98.6075 104.64 98.8501 104.661 99.1298C104.683 99.4096 104.906 99.6205 105.16 99.601Z" fill="#363435"/>
</svg>
