<svg width="958" height="938" viewBox="0 0 958 938" fill="none" xmlns="http://www.w3.org/2000/svg">
<path d="M451.633 211.542L427.267 207.434C428.61 192.559 427.641 177.894 424.61 163.757L447.447 156.433C453.688 154.431 456.995 148.083 454.846 142.24L449.113 126.654C446.952 120.775 440.107 117.586 433.814 119.545L411.308 126.55C404.332 112.911 395.28 100.142 384.415 88.636L399.886 72.4056C404.325 67.7488 403.758 60.529 398.613 56.2614L384.858 44.8511C379.657 40.5378 371.782 40.8174 367.274 45.4943L351.815 61.5337C338.067 52.6058 322.738 45.2441 306.077 39.8587L310.505 18.4712C311.812 12.1617 307.196 5.83552 300.174 4.33675L281.38 0.325522C274.267 -1.19262 267.413 2.74389 266.092 9.12263L261.616 30.7454C243.639 29.0695 225.829 29.7725 208.633 32.6247L200.026 10.9227C197.497 4.54538 189.699 0.911948 182.593 2.82311L163.589 7.9342C156.402 9.86717 152.666 16.658 155.26 23.0869L164.23 45.3178C147.976 52.0744 132.867 60.9033 119.416 71.5406L98.2199 55.3373C92.2107 50.7431 83.2124 51.0627 78.1303 56.0721L64.57 69.4385C59.4543 74.4814 60.2544 82.2922 66.3487 86.8625L88.338 103.353C78.592 116.404 70.8425 130.853 65.5456 146.439L36.1009 141.474C28.1767 140.137 20.6062 144.485 19.2181 151.189L15.5271 169.018C14.1391 175.722 19.4726 182.18 27.4129 183.44L57.7003 188.243C57.0311 204.231 59.0044 219.895 63.3185 234.86L33.806 244.046C26.2805 246.388 22.4044 253.434 25.1656 259.765L32.4839 276.547C35.2268 282.837 43.5074 285.983 50.9631 283.592L80.8762 273.998C89.261 287.393 99.6942 299.684 111.854 310.506L91.3492 331.781C86.3502 336.967 87.1217 344.496 93.0634 348.577L108.776 359.367C114.651 363.402 123.393 362.474 128.311 357.315L148.709 335.916C162.931 343.379 178.409 349.215 194.873 353.122L189.328 379.906C188.007 386.284 192.836 392.132 200.09 392.965L219.259 395.164C226.421 395.986 233.268 391.535 234.575 385.226L240.06 358.733C256.772 358.98 273.082 357.209 288.656 353.674L298.447 377.939C300.786 383.737 308.034 386.491 314.621 384.105L332.045 377.796C338.562 375.437 341.983 368.869 339.7 363.113L330.251 339.287C344.533 332.481 357.741 324.042 369.522 314.228L390.285 329.799C395.382 333.621 403.054 332.807 407.429 327.998L419.028 315.247C423.377 310.467 422.829 303.489 417.798 299.643L397.772 284.335C406.513 272.46 413.604 259.441 418.71 245.493L443.782 249.469C450.245 250.494 456.479 246.442 457.725 240.421L461.04 224.41C462.286 218.39 458.083 212.63 451.633 211.542ZM227.146 309.777C154.568 299.931 104.753 238.94 118.226 173.865C131.699 108.79 202.662 67.6353 274.409 81.495C343.717 94.8839 387.939 154.96 375.283 216.086C362.628 277.21 297.257 319.287 227.146 309.777Z" fill="#FFC444"/>
<path d="M206.54 6.03271L189.304 2.53662L180.401 15.6225L206.54 6.03271Z" fill="#FFC444"/>
<path d="M377.219 41.8274L397.186 45.4138L394.416 58.7947L377.219 41.8274Z" fill="#FFC444"/>
<path d="M440.094 119.352L459.884 123.477L452.802 132.754L440.094 119.352Z" fill="#FFC444"/>
<path d="M453.318 212.026L473.158 216.901L464.744 224.641L453.318 212.026Z" fill="#FFC444"/>
<path d="M393.873 331.632L412.892 337.49L418.279 323.432L393.873 331.632Z" fill="#FFC444"/>
<path d="M305.58 384.178L322.529 390.059L326.358 378.543L305.58 384.178Z" fill="#FFC444"/>
<path d="M212 397.45L196.771 392.236L214.112 376.282L212 397.45Z" fill="#FFC444"/>
<path d="M129.835 367.55L112.2 360.992L129.578 347.851L129.835 367.55Z" fill="#FFC444"/>
<path d="M88.4355 52.0063L107.467 55.8076L97.2686 67.1753L88.4355 52.0063Z" fill="#FFC444"/>
<path d="M22.1589 181.681L39.2199 187.019L40.5198 173.762L22.1589 181.681Z" fill="#FFC444"/>
<path d="M40.1179 283.39L56.7432 288.841L60.2728 278.771L40.1179 283.39Z" fill="#FFC444"/>
<path d="M471.016 216.327L446.448 212.184C447.802 197.187 446.825 182.404 443.767 168.151L466.793 160.768C473.086 158.75 476.42 152.35 474.253 146.459L468.473 130.746C466.293 124.82 459.392 121.605 453.046 123.579L430.354 130.641C423.32 116.89 414.192 104.017 403.237 92.4168L418.836 76.0546C423.311 71.3601 422.74 64.0814 417.552 59.7789L403.682 48.2756C398.438 43.927 390.497 44.2086 385.952 48.9239L370.366 65.0938C356.504 56.0929 341.048 48.6707 324.248 43.2413L328.713 21.6795C330.029 15.3184 325.375 8.94102 318.295 7.4298L299.345 3.38535C292.174 1.85476 285.263 5.82308 283.931 12.2541L279.418 34.0526C261.292 32.3625 243.335 33.071 225.996 35.9461L217.317 14.067C214.767 7.63737 206.905 3.97454 199.74 5.90093L180.578 11.0532C173.332 13.0014 169.565 19.8479 172.181 26.3294L181.227 48.742C164.838 55.5532 149.605 64.4537 136.042 75.1776L114.67 58.8413C108.611 54.2098 99.538 54.5315 94.4143 59.5817L80.7422 73.0567C75.5841 78.1405 76.3911 86.0149 82.5358 90.6229L104.708 107.249C94.8817 120.406 87.0681 134.973 81.7277 150.685L52.0393 145.679C44.049 144.331 36.4159 148.714 35.0165 155.473L31.2953 173.447C29.8958 180.205 35.2736 186.717 43.2798 187.986L73.8184 192.829C73.1442 208.947 75.1339 224.74 79.4846 239.827L49.7279 249.087C42.1402 251.448 38.2321 258.551 41.0162 264.934L48.3956 281.853C51.1613 288.194 59.5106 291.366 67.0277 288.956L97.1881 279.285C105.643 292.789 116.163 305.18 128.424 316.091L107.749 337.539C102.709 342.767 103.487 350.357 109.478 354.471L125.321 365.35C131.244 369.418 140.059 368.483 145.017 363.282L165.583 341.708C179.924 349.233 195.53 355.117 212.13 359.056L206.54 386.058C205.208 392.489 210.077 398.384 217.392 399.224L236.72 401.441C243.942 402.27 250.845 397.783 252.162 391.422L257.692 364.714C274.543 364.963 290.988 363.178 306.69 359.615L316.563 384.078C318.922 389.923 326.23 392.699 332.872 390.295L350.44 383.935C357.011 381.556 360.46 374.935 358.158 369.131L348.631 345.111C363.031 338.25 376.348 329.743 388.226 319.849L409.161 335.547C414.3 339.401 422.037 338.58 426.448 333.732L438.143 320.878C442.527 316.059 441.975 309.024 436.902 305.146L416.71 289.712C425.523 277.741 432.672 264.616 437.82 250.555L463.1 254.563C469.617 255.597 475.902 251.512 477.159 245.442L480.501 229.3C481.757 223.231 477.52 217.424 471.016 216.327ZM244.672 315.356C171.493 305.43 121.263 243.939 134.846 178.334C148.429 112.729 219.979 71.2404 292.32 85.215C362.203 98.7146 406.792 159.282 394.034 220.905C381.276 282.528 315.365 324.946 244.672 315.356Z" fill="#FFC444" fill-opacity="0.94"/>
<path d="M623.244 825.921C609.002 821.637 598.357 810.676 595.355 797.204L574.626 704.172L397.3 709.882L375.477 806.801C372.42 820.374 384.656 833.991 398.746 838.991L472.935 865.313C486.734 870.208 501.567 872.158 516.309 871.015L673.097 858.852C677.68 858.496 681.357 855.229 681.89 851.038C682.423 846.847 685.635 842.141 681.264 840.826L623.244 825.921Z" fill="black"/>
<path d="M624.999 820.263C610.771 816.033 600.137 805.21 597.138 791.907L576.429 700.044L403.427 705.688L381.625 801.389C378.571 814.791 386.65 828.232 400.727 833.168L474.841 859.159C488.626 863.993 503.443 865.919 518.171 864.789L674.801 852.78C679.379 852.429 683.052 849.203 683.585 845.064C684.118 840.926 681.363 837.019 676.997 835.721L624.999 820.263Z" fill="url(#paint0_linear_152_326)"/>
<path d="M34.9613 766.006C15.7317 767.045 0 755.733 0 740.784V201.975C0 187.026 15.7317 175.482 34.9613 176.237L928.114 232.306C942.231 232.861 949.807 222.526 949.807 235.24V693.493C949.807 706.207 938.375 717.169 924.257 717.932L34.9613 766.006Z" fill="#97A6B7"/>
<path d="M42.9533 766.006C23.7236 767.046 7.99194 755.733 7.99194 740.784V201.976C7.99194 187.026 23.7236 175.482 42.9533 176.237L932.249 211.178C946.367 211.733 957.798 222.526 957.798 235.24V693.493C957.798 706.207 946.367 717.169 932.249 717.932L42.9533 766.006Z" fill="url(#paint1_linear_152_326)"/>
<path opacity="0.3" d="M931.138 211.571L41.8422 178.397C32.673 188.405 24.3149 194.565 24.3149 202.547V621.598V739.971C24.3149 747.954 32.6733 753.99 42.9536 753.455L932.249 707.148C939.816 706.753 945.935 700.905 945.935 694.083V589.328V234.825C945.935 228.003 939.816 222.245 931.138 211.571Z" fill="#180617"/>
<path d="M925.641 668.372L52.5916 707.451C43.4282 707.861 35.9805 702.368 35.9805 695.181V209.606C35.9805 202.419 43.4282 196.843 52.5916 197.152L925.641 226.537C932.493 226.768 938.035 231.975 938.035 238.168V656.604C938.035 662.797 932.493 668.066 925.641 668.372Z" fill="url(#paint2_linear_152_326)"/>
<path opacity="0.6" d="M270.386 248.432L71.0017 243.115V225.877L270.386 231.724V248.432Z" fill="black"/>
<path opacity="0.36" d="M364.283 246.168L318.223 244.904V233.127L364.283 234.478V246.168Z" fill="black"/>
<path opacity="0.36" d="M364.283 262.411L318.223 261.267V249.49L364.283 250.72V262.411Z" fill="black"/>
<path d="M593.818 268.107L415.126 263.672V252.078L593.818 256.85V268.107Z" fill="url(#paint3_linear_152_326)"/>
<path opacity="0.5" d="M623.119 284.398L446.205 280.471V268.936L623.119 273.197V284.398Z" fill="url(#paint4_linear_152_326)"/>
<path opacity="0.5" d="M623.119 299.962L446.205 296.499V284.963L623.119 288.76V299.962Z" fill="url(#paint5_linear_152_326)"/>
<path opacity="0.6" d="M623.119 315.526L446.205 312.526V300.991L623.119 304.324V315.526Z" fill="black"/>
<path opacity="0.36" d="M364.283 278.653L318.223 277.631V265.854L364.283 266.963V278.653Z" fill="black"/>
<path opacity="0.36" d="M364.283 294.895L318.223 293.994V282.217L364.283 283.205V294.895Z" fill="black"/>
<path opacity="0.36" d="M364.283 311.137L318.223 310.357V298.58L364.283 299.447V311.137Z" fill="black"/>
<path opacity="0.36" d="M364.283 327.38L318.223 326.719V314.942L364.283 315.69V327.38Z" fill="black"/>
<path opacity="0.6" d="M487.707 329.149L374.334 327.524V315.853L487.707 317.692V329.149Z" fill="black"/>
<path opacity="0.36" d="M364.283 343.622L318.223 343.083V331.306L364.283 331.932V343.622Z" fill="black"/>
<path opacity="0.36" d="M364.283 359.865L318.223 359.446V347.669L364.283 348.174V359.865Z" fill="black"/>
<path opacity="0.36" d="M364.283 376.107L318.223 375.809V364.032L364.283 364.416V376.107Z" fill="black"/>
<path opacity="0.5" d="M540.825 345.69L415.126 344.217V332.623L540.825 334.333V345.69Z" fill="url(#paint6_linear_152_326)"/>
<path opacity="0.6" d="M606.127 362.062L446.205 360.609V349.073L606.127 350.829V362.062Z" fill="black"/>
<path d="M606.127 377.671L446.205 376.637V365.101L606.127 366.437V377.671Z" fill="url(#paint7_linear_152_326)"/>
<path opacity="0.36" d="M364.283 392.349L318.223 392.172V380.395L364.283 380.659V392.349Z" fill="black"/>
<path opacity="0.36" d="M364.283 408.591L318.223 408.535V396.758L364.283 396.901V408.591Z" fill="black"/>
<path opacity="0.36" d="M364.283 424.834L318.223 424.898V413.121L364.283 413.143V424.834Z" fill="black"/>
<path opacity="0.36" d="M364.283 441.076L318.223 441.261V429.484L364.283 429.386V441.076Z" fill="black"/>
<path opacity="0.36" d="M364.283 457.318L318.223 457.624V445.847L364.283 445.628V457.318Z" fill="black"/>
<path opacity="0.36" d="M364.283 473.56L318.223 473.987V462.21L364.283 461.87V473.56Z" fill="black"/>
<path opacity="0.36" d="M364.283 489.802L318.223 490.35V478.573L364.283 478.112V489.802Z" fill="black"/>
<path opacity="0.36" d="M364.283 506.045L318.223 506.713V494.936L364.283 494.355V506.045Z" fill="black"/>
<path opacity="0.36" d="M364.283 522.287L318.223 523.076V511.299L364.283 510.597V522.287Z" fill="black"/>
<path opacity="0.36" d="M364.283 538.53L318.223 539.439V527.662L364.283 526.84V538.53Z" fill="black"/>
<path opacity="0.36" d="M364.283 554.772L318.223 555.802V544.025L364.283 543.082V554.772Z" fill="black"/>
<path opacity="0.36" d="M364.283 571.014L318.223 572.165V560.388L364.283 559.324V571.014Z" fill="black"/>
<path opacity="0.36" d="M364.283 587.257L318.223 588.528V576.751L364.283 575.566V587.257Z" fill="black"/>
<path opacity="0.36" d="M364.283 603.499L318.223 604.892V593.115L364.283 591.809V603.499Z" fill="black"/>
<path opacity="0.36" d="M364.283 619.741L318.223 621.254V609.477L364.283 608.051V619.741Z" fill="black"/>
<path opacity="0.36" d="M364.283 635.983L318.223 637.618V625.84L364.283 624.293V635.983Z" fill="black"/>
<path opacity="0.36" d="M364.283 652.226L318.223 653.981V642.204L364.283 640.536V652.226Z" fill="black"/>
<path opacity="0.36" d="M364.283 668.468L318.223 670.344V658.567L364.283 656.778V668.468Z" fill="black"/>
<path opacity="0.5" d="M499.638 249.882L374.021 246.435V234.764L499.638 238.448V249.882Z" fill="url(#paint8_linear_152_326)"/>
<path opacity="0.6" d="M593.818 580.918L415.126 585.853V574.258L593.818 569.661V580.918Z" fill="black"/>
<path opacity="0.5" d="M623.119 595.673L446.205 601.022V589.486L623.119 584.471V595.673Z" fill="url(#paint9_linear_152_326)"/>
<path opacity="0.5" d="M623.119 611.237L446.205 617.049V605.514L623.119 600.035V611.237Z" fill="url(#paint10_linear_152_326)"/>
<path opacity="0.5" d="M699.356 624.096L527.023 630.21V618.827L699.356 613.038V624.096Z" fill="url(#paint11_linear_152_326)"/>
<path d="M699.356 639.46L527.023 646.026V634.642L699.356 628.402V639.46Z" fill="url(#paint12_linear_152_326)"/>
<path opacity="0.6" d="M699.356 654.824L527.023 661.841V650.458L699.356 643.766V654.824Z" fill="black"/>
<path opacity="0.5" d="M499.638 567.631L374.021 570.771V559.099L499.638 556.197V567.631Z" fill="url(#paint13_linear_152_326)"/>
<path opacity="0.5" d="M593.818 408.872L415.126 408.653V397.059L593.818 397.615V408.872Z" fill="url(#paint14_linear_152_326)"/>
<path opacity="0.6" d="M623.119 424.472L446.205 424.719V413.183L623.119 413.27V424.472Z" fill="black"/>
<path opacity="0.5" d="M623.119 440.036L446.205 440.747V429.211L623.119 428.834V440.036Z" fill="url(#paint15_linear_152_326)"/>
<path opacity="0.5" d="M623.119 455.6L446.205 456.774V445.239L623.119 444.398V455.6Z" fill="url(#paint16_linear_152_326)"/>
<path opacity="0.5" d="M487.707 472.417L374.334 473.467V461.796L487.707 460.96V472.417Z" fill="url(#paint17_linear_152_326)"/>
<path opacity="0.6" d="M540.825 487.705L415.126 489.199V477.604L540.825 476.348V487.705Z" fill="black"/>
<path d="M606.127 502.537L446.205 504.857V493.321L606.127 491.303V502.537Z" fill="url(#paint18_linear_152_326)"/>
<path opacity="0.5" d="M606.127 518.145L446.205 520.884V509.349L606.127 506.911V518.145Z" fill="url(#paint19_linear_152_326)"/>
<path opacity="0.5" d="M641.581 533.054L483.582 536.174V524.709L641.581 521.887V533.054Z" fill="url(#paint20_linear_152_326)"/>
<path opacity="0.5" d="M641.581 548.569L483.582 552.103V540.638L641.581 537.402V548.569Z" fill="url(#paint21_linear_152_326)"/>
<path d="M499.638 392.869L374.021 392.386V380.715L499.638 381.435V392.869Z" fill="url(#paint22_linear_152_326)"/>
<path d="M270.386 274.54L156.263 271.969V254.958L270.386 257.831V274.54Z" fill="black"/>
<path opacity="0.6" d="M126.745 271.305L148.239 271.789V254.756L126.745 254.215V271.305Z" fill="black"/>
<path opacity="0.6" d="M270.386 298.558L156.263 296.423V279.412L270.386 281.849V298.558Z" fill="black"/>
<path opacity="0.6" d="M126.745 295.871L148.239 296.273V279.241L126.745 278.781V295.871Z" fill="black"/>
<path opacity="0.6" d="M270.386 322.576L156.263 320.877V303.866L270.386 305.867V322.576Z" fill="black"/>
<path opacity="0.6" d="M126.745 320.438L148.239 320.758V303.725L126.745 303.348V320.438Z" fill="black"/>
<path d="M270.386 493.063L71.0017 495.5V478.262L270.386 476.354V493.063Z" fill="black"/>
<path opacity="0.6" d="M270.386 519.17L156.263 521.038V504.027L270.386 502.461V519.17Z" fill="black"/>
<path opacity="0.6" d="M126.745 521.522L148.239 521.17V504.137L126.745 504.432V521.522Z" fill="black"/>
<path opacity="0.6" d="M270.386 543.188L156.263 545.493V528.481L270.386 526.479V543.188Z" fill="black"/>
<path opacity="0.6" d="M126.745 546.089L148.239 545.654V528.622L126.745 528.999V546.089Z" fill="black"/>
<path opacity="0.6" d="M270.386 567.206L156.263 569.946V552.935L270.386 550.498V567.206Z" fill="black"/>
<path opacity="0.6" d="M126.745 570.655L148.239 570.139V553.106L126.745 553.566V570.655Z" fill="black"/>
<path d="M270.386 346.757L71.0017 344.556V327.318L270.386 330.048V346.757Z" fill="black"/>
<path opacity="0.6" d="M270.386 372.864L156.263 372.078V355.066L270.386 356.155V372.864Z" fill="black"/>
<path opacity="0.6" d="M126.745 371.874L148.239 372.022V354.989L126.745 354.784V371.874Z" fill="black"/>
<path opacity="0.6" d="M270.386 396.882L156.263 396.532V379.52L270.386 380.173V396.882Z" fill="black"/>
<path opacity="0.6" d="M126.745 396.441L148.239 396.507V379.474L126.745 379.351V396.441Z" fill="black"/>
<path opacity="0.6" d="M270.386 445.23L156.263 445.757V428.746L270.386 428.521V445.23Z" fill="black"/>
<path opacity="0.6" d="M126.745 445.893L148.239 445.794V428.761L126.745 428.803V445.893Z" fill="black"/>
<path opacity="0.6" d="M270.386 469.248L156.263 470.211V453.2L270.386 452.54V469.248Z" fill="black"/>
<path opacity="0.6" d="M126.745 470.46L148.239 470.279V453.246L126.745 453.37V470.46Z" fill="black"/>
<path opacity="0.6" d="M270.386 420.9L156.263 420.985V403.974L270.386 404.191V420.9Z" fill="black"/>
<path opacity="0.6" d="M126.745 421.008L148.239 420.991V403.959L126.745 403.918V421.008Z" fill="black"/>
<path d="M270.386 591.216L71.0017 596.765V579.527L270.386 574.508V591.216Z" fill="black"/>
<path opacity="0.6" d="M270.386 617.323L156.263 620.972V603.961L270.386 600.614V617.323Z" fill="black"/>
<path opacity="0.6" d="M126.745 621.917L148.239 621.229V604.197L126.745 604.827V621.917Z" fill="black"/>
<path opacity="0.6" d="M270.386 641.341L156.263 645.427V628.415L270.386 624.632V641.341Z" fill="black"/>
<path opacity="0.6" d="M126.745 646.483L148.239 645.714V628.681L126.745 629.393V646.483Z" fill="black"/>
<path opacity="0.6" d="M270.386 665.359L156.263 669.88V652.869L270.386 648.651V665.359Z" fill="black"/>
<path opacity="0.6" d="M126.745 671.05L148.239 670.198V653.165L126.745 653.96V671.05Z" fill="black"/>
<path opacity="0.6" d="M294.615 664.482L290.224 664.656V232.306L294.615 232.435V664.482Z" fill="black"/>
<path d="M866.406 27.0179L680.963 14.3026C663.399 13.0983 649.067 25.9817 649.067 43.0867V95.5095C649.067 112.615 663.399 127.127 680.963 127.918L866.406 136.276C882.534 137.003 895.527 124.425 895.527 108.186V58.4172C895.527 42.1789 882.534 28.124 866.406 27.0179Z" fill="url(#paint23_linear_152_326)"/>
<path d="M839.054 210.891L710.189 207.172C701.246 206.914 693.971 213.798 693.971 222.548V281.058C693.971 289.808 701.245 296.976 710.189 297.066L839.054 298.374C847.494 298.46 854.313 291.672 854.313 283.213V226.648C854.313 218.188 847.494 211.134 839.054 210.891Z" fill="url(#paint24_linear_152_326)"/>
<path d="M778.405 200.77L772.587 200.592V139.095L778.405 139.348V200.77Z" fill="#898989"/>
<path d="M839.054 377.381L710.189 378.25C701.246 378.31 693.971 385.452 693.971 394.203V452.713C693.971 461.463 701.245 468.372 710.189 468.144L839.054 464.865C847.494 464.65 854.313 457.619 854.313 449.16V392.595C854.313 384.136 847.494 377.324 839.054 377.381Z" fill="url(#paint25_linear_152_326)"/>
<path d="M871.294 27.2214L685.998 14.5145C668.448 13.3108 654.126 26.1894 654.126 43.2878V95.6895C654.126 112.788 668.448 127.294 685.998 128.085L871.294 136.437C887.41 137.164 900.392 124.59 900.392 108.357V58.6083C900.392 42.3758 887.41 28.3265 871.294 27.2214Z" fill="url(#paint26_linear_152_326)"/>
<path d="M843.964 211.022L715.201 207.307C706.264 207.049 698.995 213.93 698.995 222.676V281.164C698.995 289.91 706.264 297.074 715.201 297.165L843.964 298.472C852.397 298.557 859.211 291.771 859.211 283.316V226.773C859.211 218.317 852.397 211.265 843.964 211.022Z" fill="url(#paint27_linear_152_326)"/>
<path d="M843.964 377.447L715.201 378.316C706.264 378.376 698.995 385.516 698.995 394.263V452.75C698.995 461.497 706.264 468.402 715.201 468.175L843.964 464.897C852.397 464.682 859.211 457.654 859.211 449.198V392.655C859.211 384.199 852.397 377.39 843.964 377.447Z" fill="url(#paint28_linear_152_326)"/>
<path d="M778.405 369.419L772.587 369.448V307.951L778.405 307.998V369.419Z" fill="#898989"/>
<path d="M686.108 536.766L686.926 536.322C672.857 535.135 651.588 530.873 639.12 528.174C638.686 528.233 638.194 528.204 637.76 528.263C624.91 529.956 610.315 530.752 594.682 529.934C579.049 529.18 562.374 526.487 545.624 521.891C543.517 521.395 541.441 520.628 539.351 520.01C538.313 519.679 537.249 519.353 536.205 519.012L534.639 518.535C534.105 518.358 533.595 518.154 533.072 517.971C531.003 517.216 528.924 516.466 526.828 515.712L525.262 515.15L523.721 514.5C522.69 514.076 521.66 513.652 520.64 513.222C516.472 511.603 512.464 509.593 508.392 507.72C506.368 506.739 504.378 505.638 502.387 504.601C501.398 504.092 500.386 503.57 499.394 503.037C498.422 502.468 497.433 501.896 496.466 501.337C480.793 492.35 466.333 481.116 453.968 468.255C452.452 466.632 450.937 465.009 449.409 463.368C447.939 461.709 446.552 459.966 445.128 458.293L442.991 455.749L441.02 453.1L439.029 450.462C438.378 449.581 437.682 448.737 437.096 447.806C435.886 445.993 434.665 444.186 433.449 442.363C433.154 441.917 432.805 441.451 432.561 441.018L431.83 439.763L430.369 437.254L428.909 434.769C428.779 434.55 428.681 434.402 428.518 434.112L427.087 431.524L425.157 428.072L423.726 425.483L423.482 425.049L423.394 424.895C423.404 424.89 422.825 424.033 423.811 425.464L421.147 419.637C420.719 418.672 420.223 417.731 419.856 416.733L418.707 413.791L417.547 410.854L416.97 409.39C416.774 408.903 416.636 408.399 416.466 407.911C415.814 405.933 415.153 403.962 414.517 401.987C414.152 401.014 413.928 400.001 413.653 399.015L412.87 396.038L412.045 393.083L411.421 390.094C411.019 388.095 410.534 386.139 410.204 384.164C409.9 382.187 409.589 380.2 409.301 378.226C407.184 362.425 407.69 346.913 410.425 332.462L410.895 329.762L411.539 327.094C411.958 325.329 412.302 323.554 412.789 321.828C412.799 321.76 412.836 321.689 412.846 321.621C413.857 318.224 414.706 314.877 415.939 311.65C416.212 310.821 416.501 309.996 416.797 309.181L417.208 307.949L417.717 306.741C418.359 305.145 419.017 303.552 419.656 301.971C419.815 301.581 419.953 301.179 420.123 300.784L420.675 299.641C421.038 298.864 421.407 298.097 421.756 297.34C422.506 295.824 423.106 294.29 423.952 292.834C430.095 281.083 437.211 270.807 444.855 262.299C452.46 253.773 460.33 246.894 467.676 241.409C468.609 240.739 469.522 240.079 470.425 239.425C471.33 238.796 472.165 238.103 473.092 237.549C474.904 236.377 476.623 235.255 478.261 234.177C479.96 233.129 481.648 232.213 483.191 231.288C483.971 230.827 484.718 230.358 485.459 229.944C486.245 229.555 487.004 229.168 487.727 228.789C489.182 228.024 490.555 227.305 491.836 226.634C492.188 226.431 492.41 226.386 492.667 226.272C492.921 226.172 493.175 226.072 493.418 225.978C493.893 225.771 493.868 225.859 494.302 225.675C494.668 225.514 494.856 225.462 494.875 225.49L535.188 286.576L556.077 224.831L603.204 82.0689L372.301 39.7544L415.125 104.645C415.187 104.738 414.026 105.506 413.131 106.13C411.219 107.508 409.371 108.876 407.1 110.511C405.983 111.345 404.934 112.115 403.731 113.008C403.147 113.451 402.588 113.867 401.974 114.327C401.364 114.771 400.703 115.243 400.199 115.68C398.023 117.479 395.725 119.368 393.272 121.38C392.069 122.398 390.828 123.425 389.558 124.492C388.302 125.577 387.061 126.729 385.779 127.904C383.225 130.247 380.506 132.655 377.805 135.28C375.161 137.95 372.419 140.723 369.562 143.597C368.115 145.025 366.795 146.585 365.384 148.132C364.01 149.672 362.597 151.258 361.159 152.87C349.902 165.822 338.557 181.316 328.662 199.174C318.733 217.001 310.517 237.3 304.898 259.152C304.113 261.859 303.608 264.654 302.979 267.428C302.689 268.82 302.382 270.209 302.082 271.607L301.644 273.722L301.285 275.832C300.831 278.662 300.37 281.521 299.902 284.371L299.568 286.519L299.332 288.688C299.17 290.15 299.013 291.596 298.862 293.052C298.131 298.83 297.922 304.727 297.604 310.647C297.498 313.603 297.543 316.577 297.531 319.571C297.531 321.045 297.544 322.538 297.536 324.042C297.608 325.541 297.679 327.039 297.751 328.538C298.759 352.515 303.646 376.957 312.362 400.357C313.508 403.252 314.656 406.17 315.807 409.074C316.99 411.961 318.367 414.805 319.654 417.661L321.636 421.928L323.821 426.124L326.01 430.304C326.747 431.694 327.447 433.091 328.271 434.446C329.878 437.153 331.275 439.987 332.887 442.704C333.285 443.37 333.449 444.188 333.884 444.847L335.195 446.833L338.043 450.643L340.789 454.509C341.659 455.827 342.723 457.039 343.658 458.308L349.354 465.866C350.561 467.631 349.81 466.451 350.12 466.9L350.285 467.087L350.612 467.477L351.274 468.227L352.589 469.756L355.207 472.797L356.523 474.327L357.174 475.082L357.995 476.01L361.414 479.801L364.853 483.58L366.571 485.446C367.141 486.057 367.703 486.571 368.275 487.143C370.54 489.354 372.815 491.56 375.071 493.777C376.18 494.889 377.4 495.916 378.578 496.965L382.141 500.111L385.686 503.228L389.384 506.199C391.858 508.158 394.287 510.155 396.802 512.029C399.358 513.88 401.902 515.714 404.446 517.546C425.062 531.855 447.347 543.026 469.847 550.817C471.247 551.317 472.652 551.802 474.046 552.293C475.459 552.749 476.869 553.181 478.29 553.607C481.111 554.471 483.877 555.377 486.697 556.153C492.376 557.62 497.907 559.156 503.524 560.255C504.918 560.556 506.311 560.834 507.695 561.142L509.758 561.572L511.842 561.929C514.624 562.397 517.385 562.852 520.113 563.3L522.167 563.634L524.233 563.9C525.599 564.053 526.967 564.231 528.323 564.39C531.044 564.703 533.717 565.13 536.414 565.28C550.872 566.571 564.784 566.76 577.903 566.043C584.282 565.706 590.476 565.131 596.449 564.347C614.734 562.024 630.991 558.08 644.857 553.63C646.578 553.037 648.28 552.479 649.95 551.913C651.603 551.343 653.257 550.837 654.824 550.201C657.973 548.97 661 547.807 663.905 546.671C666.791 545.484 669.488 544.222 672.089 543.088C673.372 542.505 674.643 541.966 675.873 541.387C677.064 540.791 678.357 540.392 679.513 539.828C681.78 538.673 684.133 537.838 686.108 536.766Z" fill="url(#paint29_linear_152_326)"/>
<path opacity="0.4" d="M686.108 536.766L686.927 536.322C672.857 535.134 651.588 530.872 639.12 528.174C638.686 528.233 638.194 528.203 637.761 528.262C624.91 529.955 610.315 530.752 594.682 529.934C579.049 529.179 562.374 526.487 545.624 521.891C543.518 521.395 541.441 520.628 539.351 520.01C538.313 519.678 537.25 519.353 536.205 519.012L534.639 518.534C534.105 518.358 533.596 518.153 533.072 517.971C531.004 517.216 528.924 516.465 526.828 515.712L525.262 515.15L523.721 514.5C522.691 514.075 521.66 513.652 520.64 513.222C516.472 511.602 512.464 509.593 508.392 507.719C506.369 506.738 504.378 505.638 502.387 504.601C501.398 504.092 500.386 503.57 499.395 503.036C498.422 502.468 497.433 501.896 496.466 501.337C480.793 492.35 466.333 481.116 453.968 468.254C452.453 466.632 450.937 465.009 449.409 463.368C447.939 461.709 446.553 459.966 445.129 458.293L442.991 455.749L441.021 453.1L439.03 450.462C438.378 449.58 437.683 448.736 437.097 447.806C435.886 445.993 434.665 444.185 433.449 442.362C433.155 441.917 432.806 441.451 432.561 441.017L431.83 439.763L430.369 437.254L428.91 434.769C428.779 434.55 428.681 434.402 428.518 434.112L427.088 431.523L425.157 428.072L423.727 425.483L423.482 425.049L423.394 424.895C423.405 424.889 422.825 424.032 423.811 425.463L421.147 419.636C420.719 418.672 420.223 417.731 419.857 416.733L418.707 413.791L417.547 410.854L416.97 409.39C416.774 408.903 416.636 408.399 416.467 407.911C415.815 405.933 415.153 403.961 414.517 401.987C414.152 401.014 413.929 400.001 413.653 399.015L412.87 396.038L412.046 393.082L411.421 390.094C411.019 388.094 410.535 386.139 410.204 384.164C409.9 382.187 409.589 380.2 409.301 378.226C407.184 362.425 407.691 346.913 410.426 332.462L410.896 329.762L411.539 327.094C411.958 325.329 412.302 323.554 412.789 321.828C412.8 321.759 412.837 321.689 412.847 321.621C393.499 369.359 398.489 426.979 431.569 477.106C465.465 528.467 520.936 559.979 577.902 566.043C584.282 565.706 590.475 565.13 596.448 564.347C614.733 562.023 630.99 558.079 644.856 553.63C646.577 553.036 648.28 552.478 649.949 551.912C651.602 551.342 653.256 550.836 654.823 550.2C657.972 548.97 660.999 547.807 663.905 546.671C666.79 545.483 669.487 544.221 672.088 543.087C673.371 542.504 674.642 541.966 675.872 541.387C677.063 540.791 678.356 540.392 679.513 539.827C681.78 538.673 684.133 537.838 686.108 536.766Z" fill="url(#paint30_linear_152_326)"/>
<path d="M633.885 514.307C633.052 514.514 632.349 515.018 631.935 515.705C631.521 516.392 631.434 517.202 631.693 517.949L649.806 570.235C650.324 571.73 652.066 572.575 653.725 572.136L695.792 561.01C697.468 560.567 698.435 558.981 697.958 557.458L681.649 505.425C681.173 503.905 679.436 503.018 677.757 503.434L633.885 514.307Z" fill="#F4F7FA"/>
<path d="M637.232 516.849C636.49 517.033 635.862 517.484 635.493 518.096C635.124 518.708 635.046 519.431 635.277 520.096L651.43 566.724C651.892 568.057 653.445 568.811 654.925 568.42L692.44 558.498C693.934 558.103 694.796 556.688 694.371 555.33L679.827 508.928C679.402 507.573 677.854 506.781 676.356 507.152L637.232 516.849Z" fill="url(#paint31_linear_152_326)"/>
<path opacity="0.75" d="M642.843 519.447C642.272 519.588 641.787 519.933 641.501 520.404C641.215 520.875 641.151 521.43 641.324 521.944L646.435 537.152C646.78 538.177 647.959 538.77 649.101 538.493L679.038 531.211C679.603 531.073 680.084 530.736 680.374 530.275C680.664 529.814 680.739 529.267 680.581 528.756L675.83 513.32C675.506 512.267 674.304 511.649 673.141 511.937L642.843 519.447Z" fill="#F4F7FA"/>
<path opacity="0.75" d="M650.448 543.711C649.858 543.857 649.358 544.214 649.063 544.699C648.768 545.184 648.702 545.758 648.88 546.288L654.154 561.98C654.509 563.038 655.726 563.65 656.904 563.364L687.794 555.85C688.378 555.708 688.874 555.361 689.174 554.885C689.473 554.409 689.55 553.844 689.388 553.317L684.485 537.39C684.151 536.303 682.911 535.665 681.71 535.962L650.448 543.711Z" fill="#F4F7FA"/>
<path d="M878.682 541.135C881.048 541.946 917.144 554.963 924.564 589.125C925.163 591.884 930.962 621.235 909.011 641.969C884.397 665.22 837.001 664.643 818.188 645.207C813.801 640.674 811.487 635.65 810.19 631.429L815.147 619.488C821.195 612.867 829.431 611.298 833.829 610.315C844.671 607.892 852.858 612.271 859.067 607.53C862.502 604.907 863.185 601.131 863.795 597.758C865.872 586.271 858.721 579.2 858.201 572.116C857.812 566.821 855.768 555.217 863.39 547.651C868.218 542.859 874.903 541.554 878.682 541.135Z" fill="url(#paint32_linear_152_326)"/>
<path d="M892.746 921.858C893.167 919.755 900.657 917.851 904.366 920.668C906.207 922.066 907.475 924.902 906.41 926.182C906.022 926.648 907.61 927.468 906.089 927.484C901.043 927.537 892.327 923.947 892.746 921.858Z" fill="url(#paint33_linear_152_326)"/>
<path d="M900.596 922.623L908.299 921.636C904.73 917.739 905.391 905.332 905.391 905.332L897.2 906.99C897.2 906.99 898.133 910.396 899.721 915.419C900.265 917.139 900.507 919.831 900.596 922.623Z" fill="url(#paint34_linear_152_326)"/>
<path d="M899.914 921.762C899.914 921.762 909.188 919.825 910.191 921.493C911.194 923.161 911.973 927.627 906.089 927.483C900.205 927.34 899.391 923.177 899.914 921.762Z" fill="url(#paint35_linear_152_326)"/>
<path d="M787.054 929.744C787.795 927.715 795.505 926.78 798.743 930.041C800.35 931.659 801.168 934.628 799.915 935.76C799.46 936.172 800.905 937.185 799.397 937.008C794.393 936.42 786.317 931.76 787.054 929.744Z" fill="url(#paint36_linear_152_326)"/>
<path d="M653.712 573.808L646.671 570.75C645.578 569.958 643.905 568.551 642.637 566.394C640.55 562.844 640.583 559.002 640.61 558.999C640.626 558.996 640.289 553.831 642.706 552.956C643.023 552.842 643.388 552.805 643.81 552.867L646.314 558.847C646.314 558.847 646.715 561.449 651.24 564.149C655.725 567.692 657.531 570.929 657.531 570.929L653.712 573.808Z" fill="url(#paint37_linear_152_326)"/>
<path d="M794.709 931.498H802.488C799.556 927.187 802.125 914.986 802.125 914.986L793.758 915.588C793.758 915.588 794.157 919.078 794.953 924.254C795.227 926.026 795.052 928.722 794.709 931.498Z" fill="url(#paint38_linear_152_326)"/>
<path d="M774.547 664.733C770.944 675.524 765.797 692.941 762.485 714.793C753.035 777.122 773.119 779.11 769.368 848.178C768.171 870.225 790.432 921.063 792.394 922.186C793.344 922.269 794.374 922.325 795.473 922.295C797.409 922.242 800.139 921.973 803.313 921.11C806.84 920.559 819.553 889.333 816.607 870.767C814.521 857.627 815.125 843.525 816.335 815.322C816.53 810.752 829.425 726.411 829.425 726.411C833.347 757.629 837.858 784.155 841.768 804.72C854.332 870.794 895.184 910.787 897.315 911.429C897.735 911.582 901.569 912.845 904.703 910.972C906.098 910.138 906.572 909.062 906.572 909.062C907.665 908.286 906.25 843.095 893.79 794.032C875.704 722.818 883.58 706.155 877.85 674.347C872.891 646.824 774.547 664.733 774.547 664.733Z" fill="#180617"/>
<path d="M847.6 535.576C835.592 535.256 812.335 531.701 797.134 544.104C796.87 544.319 795.641 545.54 794.107 547.169C792.684 548.682 787.801 553.976 783.374 561.135C780.167 566.319 777.273 572.362 774.353 581.368C769.204 597.251 767.726 610.776 767.232 616.669C764.453 649.807 767.209 665.096 769.709 675.493C780.566 680.549 808.54 689.598 841.873 685.102C857.095 683.049 869.277 678.456 877.85 674.355C869.201 650.609 875.986 637.902 879.187 626.19C883.752 609.489 883.825 610.752 887.584 597.485C893.785 575.595 894.803 553.228 890.542 548.65C879.053 536.309 858.351 535.863 847.6 535.576Z" fill="url(#paint39_linear_152_326)"/>
<path opacity="0.3" d="M890.542 548.651C884.092 541.722 874.738 538.543 865.871 537.036C870.027 553.859 860.585 574.462 847.771 585.399C835.815 595.602 824.817 588.826 816.892 597.333C810.348 604.359 810.135 615.777 813.437 623.608C817.903 634.199 827.534 635.229 827.033 641.206C826.37 649.13 808.8 655.029 795.877 656.132C782.38 657.284 771.618 653.404 766.282 651.068C766.822 662.279 768.306 669.656 769.71 675.492C780.566 680.549 808.541 689.597 841.873 685.102C857.095 683.048 869.278 678.456 877.85 674.355C869.201 650.609 875.986 637.902 879.187 626.19C883.752 609.489 883.826 610.751 887.584 597.485C893.786 575.596 894.803 553.228 890.542 548.651Z" fill="url(#paint40_linear_152_326)"/>
<path d="M794.165 930.559C794.165 930.559 803.647 929.818 804.382 931.597C805.118 933.375 805.2 937.897 799.396 937.007C793.593 936.118 793.429 931.894 794.165 930.559Z" fill="url(#paint41_linear_152_326)"/>
<path d="M815.826 539.548C802.693 531.8 768.351 556.077 757.954 562.773C717.639 588.735 722.471 604.93 704.162 596.845C691.781 591.379 690.101 574.901 668.942 568.703C665.201 567.607 661.983 567.164 659.912 566.961C659.884 566.975 652.925 570.332 652.895 570.34C650.423 571.066 647.952 571.79 645.878 573.719C643.843 577.55 641.978 582.216 641.04 587.656C641.241 589.589 641.659 592.792 642.618 596.661C643.413 599.863 652.708 634.903 685.018 645.693C690.953 647.675 695.885 648.245 698.374 648.519C708.991 649.686 718.614 648.259 735.066 643.118C762.933 634.412 784.208 626.244 803.019 606.28C803.915 605.329 804.639 604.396 805.362 603.391C819.353 583.939 828.505 547.027 815.826 539.548Z" fill="url(#paint42_linear_152_326)"/>
<path d="M813.807 523.092C810.088 517.39 811.745 510.876 812.118 509.469C813.682 503.576 814.264 502.682 815.47 501.434L817.176 499.799C817.176 499.799 817.281 499.727 817.394 499.657C818.58 498.917 823.009 497.715 823.965 497.672C827.019 497.533 833.234 507.464 836.792 522.767C837.082 523.314 837.368 523.866 837.651 524.423C839.416 527.895 840.931 531.31 842.23 534.639C862.87 536.222 865.734 538.417 865.826 539.685C866.02 542.355 854.26 545.439 845.416 546.613C826.128 549.174 806.301 544.561 806.391 541.3C806.431 539.88 810.265 538.03 826.616 536.088C826.233 533.634 825.851 531.181 825.468 528.727C824.14 528.461 816.546 527.294 813.807 523.092Z" fill="url(#paint43_linear_152_326)"/>
<path d="M809.927 496.96C811.318 501.631 815.216 506.037 816.69 506.541C816.88 506.606 817.969 507.033 819.101 507.939C819.255 508.062 819.403 508.215 819.557 508.421C821.553 511.094 817.406 515.81 818.791 516.888C819.796 517.67 822.931 515.542 823.591 516.267C824.213 516.95 821.769 519.266 822.489 520.089C823.033 520.711 824.64 519.634 826.089 520.437C826.811 520.837 826.77 521.303 827.851 522.798C828.462 523.644 829.233 524.545 829.766 525.021C832.355 527.336 837.696 527.119 838.345 525.785C838.525 525.414 838.218 525.212 838.192 524.118C838.192 524.118 838.168 523.104 838.575 521.827C839.156 520.001 841.345 518.267 843.4 515.992C847.205 511.779 847.714 508.848 847.838 507.87C847.882 507.522 847.897 507.263 847.908 507.077C848.119 503.335 846.637 498.271 844.013 495.571C839.617 491.048 833.889 495.085 827.085 491.196C819.235 486.708 820.471 477.682 816.898 477.582C812.958 477.471 807.354 488.323 809.927 496.96Z" fill="black"/>
<path d="M820.321 515.341C821.122 513.461 823.778 514.404 824.39 516.438C825.002 518.472 823.448 521.117 821.218 521.225C818.987 521.333 819.244 517.872 820.321 515.341Z" fill="url(#paint44_linear_152_326)"/>
<path d="M820.344 511.685L818.429 515.852C818.429 515.852 816.486 520.883 813.986 518.979C812.398 517.768 812.062 517.643 811.799 517.588C811.775 517.583 811.479 516.589 811.458 515.711C810.977 516.916 810.309 518.965 810.31 521.34C810.31 523.646 810.31 526.117 812.301 528.007C812.416 528.117 814.586 530.118 817.51 530.022C817.51 530.022 818.66 529.984 823.025 528.147C823.025 528.147 817.051 526.063 816.744 525.299C815.911 523.221 818.827 521.285 819.961 516.338C820.398 514.431 820.409 512.794 820.344 511.685Z" fill="black"/>
<defs>
<linearGradient id="paint0_linear_152_326" x1="533.356" y1="852.844" x2="525.308" y2="597.243" gradientUnits="userSpaceOnUse">
<stop/>
<stop offset="0.9964"/>
</linearGradient>
<linearGradient id="paint1_linear_152_326" x1="360.995" y1="671.727" x2="37.5444" y2="1394.32" gradientUnits="userSpaceOnUse">
<stop stop-color="#180617"/>
<stop offset="0.9964"/>
</linearGradient>
<linearGradient id="paint2_linear_152_326" x1="261.314" y1="91.2804" x2="621.593" y2="820.005" gradientUnits="userSpaceOnUse">
<stop stop-color="white"/>
<stop offset="0.9964" stop-color="white"/>
</linearGradient>
<linearGradient id="paint3_linear_152_326" x1="485.455" y1="155.151" x2="547.783" y2="574.112" gradientUnits="userSpaceOnUse">
<stop offset="0.154" stop-color="#FFA000"/>
<stop offset="1" stop-color="#FFA000"/>
</linearGradient>
<linearGradient id="paint4_linear_152_326" x1="446.205" y1="276.667" x2="623.119" y2="276.667" gradientUnits="userSpaceOnUse">
<stop stop-color="#FFA000"/>
<stop offset="1" stop-color="#FFA000"/>
</linearGradient>
<linearGradient id="paint5_linear_152_326" x1="446.205" y1="292.463" x2="623.119" y2="292.463" gradientUnits="userSpaceOnUse">
<stop stop-color="#FFA000"/>
<stop offset="1" stop-color="#FFA000"/>
</linearGradient>
<linearGradient id="paint6_linear_152_326" x1="415.127" y1="339.156" x2="540.825" y2="339.156" gradientUnits="userSpaceOnUse">
<stop stop-color="#FFA000"/>
<stop offset="1" stop-color="#FFA000"/>
</linearGradient>
<linearGradient id="paint7_linear_152_326" x1="487.062" y1="155.403" x2="544.091" y2="538.746" gradientUnits="userSpaceOnUse">
<stop offset="0.149" stop-color="#FFA000"/>
<stop offset="1" stop-color="#FFA000"/>
</linearGradient>
<linearGradient id="paint8_linear_152_326" x1="374.021" y1="242.323" x2="499.638" y2="242.323" gradientUnits="userSpaceOnUse">
<stop stop-color="#FFA000"/>
<stop offset="1" stop-color="#FFA000"/>
</linearGradient>
<linearGradient id="paint9_linear_152_326" x1="446.205" y1="592.747" x2="623.119" y2="592.747" gradientUnits="userSpaceOnUse">
<stop stop-color="#FFA000"/>
<stop offset="1" stop-color="#FFA000"/>
</linearGradient>
<linearGradient id="paint10_linear_152_326" x1="446.205" y1="608.542" x2="623.119" y2="608.542" gradientUnits="userSpaceOnUse">
<stop stop-color="#FFA000"/>
<stop offset="1" stop-color="#FFA000"/>
</linearGradient>
<linearGradient id="paint11_linear_152_326" x1="527.023" y1="621.624" x2="699.356" y2="621.624" gradientUnits="userSpaceOnUse">
<stop stop-color="#FFA000"/>
<stop offset="1" stop-color="#FFA000"/>
</linearGradient>
<linearGradient id="paint12_linear_152_326" x1="540.706" y1="236.595" x2="585.253" y2="536.026" gradientUnits="userSpaceOnUse">
<stop offset="0.149" stop-color="#FFA000"/>
<stop offset="1" stop-color="#FFA000"/>
</linearGradient>
<linearGradient id="paint13_linear_152_326" x1="374.021" y1="563.484" x2="499.638" y2="563.484" gradientUnits="userSpaceOnUse">
<stop stop-color="#FFA000"/>
<stop offset="1" stop-color="#FFA000"/>
</linearGradient>
<linearGradient id="paint14_linear_152_326" x1="415.127" y1="402.966" x2="593.818" y2="402.966" gradientUnits="userSpaceOnUse">
<stop stop-color="#FFA000"/>
<stop offset="1" stop-color="#FFA000"/>
</linearGradient>
<linearGradient id="paint15_linear_152_326" x1="446.205" y1="434.79" x2="623.119" y2="434.79" gradientUnits="userSpaceOnUse">
<stop stop-color="#FFA000"/>
<stop offset="1" stop-color="#FFA000"/>
</linearGradient>
<linearGradient id="paint16_linear_152_326" x1="446.205" y1="450.586" x2="623.119" y2="450.586" gradientUnits="userSpaceOnUse">
<stop stop-color="#FFA000"/>
<stop offset="1" stop-color="#FFA000"/>
</linearGradient>
<linearGradient id="paint17_linear_152_326" x1="374.334" y1="467.214" x2="487.707" y2="467.214" gradientUnits="userSpaceOnUse">
<stop stop-color="#FFA000"/>
<stop offset="1" stop-color="#FFA000"/>
</linearGradient>
<linearGradient id="paint18_linear_152_326" x1="468.736" y1="180.656" x2="520.505" y2="528.641" gradientUnits="userSpaceOnUse">
<stop offset="0.149" stop-color="#FFA000"/>
<stop offset="1" stop-color="#FFA000"/>
</linearGradient>
<linearGradient id="paint19_linear_152_326" x1="446.205" y1="513.898" x2="606.128" y2="513.898" gradientUnits="userSpaceOnUse">
<stop stop-color="#FFA000"/>
<stop offset="1" stop-color="#FFA000"/>
</linearGradient>
<linearGradient id="paint20_linear_152_326" x1="483.582" y1="529.03" x2="641.581" y2="529.03" gradientUnits="userSpaceOnUse">
<stop offset="0.149" stop-color="#FFA000"/>
<stop offset="1" stop-color="#FFA000"/>
</linearGradient>
<linearGradient id="paint21_linear_152_326" x1="483.582" y1="544.753" x2="641.581" y2="544.753" gradientUnits="userSpaceOnUse">
<stop stop-color="#FF9085"/>
<stop offset="1" stop-color="#FB6FBB"/>
</linearGradient>
<linearGradient id="paint22_linear_152_326" x1="396.814" y1="165.746" x2="454.184" y2="551.378" gradientUnits="userSpaceOnUse">
<stop offset="0.154" stop-color="#FFA000"/>
<stop offset="1" stop-color="#FFA000"/>
</linearGradient>
<linearGradient id="paint23_linear_152_326" x1="749.593" y1="-24.0968" x2="810.779" y2="307.149" gradientUnits="userSpaceOnUse">
<stop stop-color="#AB316D"/>
<stop offset="1" stop-color="#792D3D"/>
</linearGradient>
<linearGradient id="paint24_linear_152_326" x1="809.727" y1="529.076" x2="773.531" y2="188.615" gradientUnits="userSpaceOnUse">
<stop stop-color="#AB316D"/>
<stop offset="1" stop-color="#792D3D"/>
</linearGradient>
<linearGradient id="paint25_linear_152_326" x1="742.914" y1="304.667" x2="803.876" y2="584.786" gradientUnits="userSpaceOnUse">
<stop stop-color="#AB316D"/>
<stop offset="1" stop-color="#792D3D"/>
</linearGradient>
<linearGradient id="paint26_linear_152_326" x1="754.567" y1="-23.8604" x2="815.722" y2="307.217" gradientUnits="userSpaceOnUse">
<stop stop-color="#FFA000"/>
<stop offset="0.549" stop-color="#FFA000"/>
</linearGradient>
<linearGradient id="paint27_linear_152_326" x1="814.671" y1="529.064" x2="778.492" y2="188.76" gradientUnits="userSpaceOnUse">
<stop offset="0.0036" stop-color="#F36F56"/>
<stop offset="1" stop-color="#FFC444"/>
</linearGradient>
<linearGradient id="paint28_linear_152_326" x1="747.891" y1="304.774" x2="808.822" y2="584.754" gradientUnits="userSpaceOnUse">
<stop offset="0.0036" stop-color="#FFA000"/>
<stop offset="1" stop-color="#FFA000"/>
</linearGradient>
<linearGradient id="paint29_linear_152_326" x1="480.79" y1="351.681" x2="225.682" y2="756.095" gradientUnits="userSpaceOnUse">
<stop offset="0.0036" stop-color="#FFA000"/>
<stop offset="1" stop-color="#FFA000"/>
</linearGradient>
<linearGradient id="paint30_linear_152_326" x1="571.549" y1="382.666" x2="508.516" y2="546.534" gradientUnits="userSpaceOnUse">
<stop offset="0.0036" stop-color="#FFA000"/>
<stop offset="1" stop-color="#FFA000"/>
</linearGradient>
<linearGradient id="paint31_linear_152_326" x1="623.588" y1="475.843" x2="702.964" y2="618.128" gradientUnits="userSpaceOnUse">
<stop stop-color="#FFA000"/>
<stop offset="1" stop-color="#FFA000"/>
</linearGradient>
<linearGradient id="paint32_linear_152_326" x1="843.375" y1="516.515" x2="880.726" y2="693.818" gradientUnits="userSpaceOnUse">
<stop stop-color="#FFA000"/>
<stop offset="1" stop-color="#FFA000"/>
</linearGradient>
<linearGradient id="paint33_linear_152_326" x1="888.586" y1="915.788" x2="904.054" y2="927.123" gradientUnits="userSpaceOnUse">
<stop stop-color="#444B8C"/>
<stop offset="0.9964" stop-color="#26264F"/>
</linearGradient>
<linearGradient id="paint34_linear_152_326" x1="904.544" y1="925.819" x2="901.566" y2="902.596" gradientUnits="userSpaceOnUse">
<stop stop-color="#FFC444"/>
<stop offset="0.9964" stop-color="#F36F56"/>
</linearGradient>
<linearGradient id="paint35_linear_152_326" x1="889.825" y1="914.098" x2="905.293" y2="925.434" gradientUnits="userSpaceOnUse">
<stop stop-color="#444B8C"/>
<stop offset="0.9964" stop-color="#26264F"/>
</linearGradient>
<linearGradient id="paint36_linear_152_326" x1="783.872" y1="923.206" x2="797.378" y2="936.454" gradientUnits="userSpaceOnUse">
<stop stop-color="#444B8C"/>
<stop offset="0.9964" stop-color="#26264F"/>
</linearGradient>
<linearGradient id="paint37_linear_152_326" x1="639.927" y1="557.519" x2="654.468" y2="571.847" gradientUnits="userSpaceOnUse">
<stop stop-color="#FFC444"/>
<stop offset="0.9964" stop-color="#F36F56"/>
</linearGradient>
<linearGradient id="paint38_linear_152_326" x1="798.123" y1="935.163" x2="798.123" y2="911.791" gradientUnits="userSpaceOnUse">
<stop stop-color="#FFC444"/>
<stop offset="0.9964" stop-color="#F36F56"/>
</linearGradient>
<linearGradient id="paint39_linear_152_326" x1="807.93" y1="523.982" x2="845.282" y2="701.285" gradientUnits="userSpaceOnUse">
<stop stop-color="#FFA000"/>
<stop offset="1" stop-color="#FFA000"/>
</linearGradient>
<linearGradient id="paint40_linear_152_326" x1="788.359" y1="581.659" x2="905.331" y2="684.037" gradientUnits="userSpaceOnUse">
<stop stop-color="#FFA000"/>
<stop offset="1" stop-color="#FFA000"/>
</linearGradient>
<linearGradient id="paint41_linear_152_326" x1="785.359" y1="921.69" x2="798.865" y2="934.938" gradientUnits="userSpaceOnUse">
<stop stop-color="#444B8C"/>
<stop offset="0.9964" stop-color="#26264F"/>
</linearGradient>
<linearGradient id="paint42_linear_152_326" x1="724.029" y1="541.657" x2="761.381" y2="718.959" gradientUnits="userSpaceOnUse">
<stop stop-color="#FFA000"/>
<stop offset="1" stop-color="#FFA000"/>
</linearGradient>
<linearGradient id="paint43_linear_152_326" x1="798.423" y1="497.546" x2="869.172" y2="595.708" gradientUnits="userSpaceOnUse">
<stop stop-color="#FFC444"/>
<stop offset="0.9964" stop-color="#F36F56"/>
</linearGradient>
<linearGradient id="paint44_linear_152_326" x1="801.802" y1="495.11" x2="872.553" y2="593.275" gradientUnits="userSpaceOnUse">
<stop stop-color="#FFC444"/>
<stop offset="0.9964" stop-color="#F36F56"/>
</linearGradient>
</defs>
</svg>
