<svg width="443" height="390" viewBox="0 0 443 390" fill="none" xmlns="http://www.w3.org/2000/svg">
<path d="M424.614 273.999C395.586 354.176 367.935 350.03 367.935 350.03L182.558 349.159L73.4761 348.647C73.4761 348.647 1.59205 376.298 5.73905 309.944C6.93905 290.763 16.9151 274.123 30.2321 258.153C30.7321 257.553 31.2381 256.953 31.7501 256.353C42.9851 243.154 56.3781 230.372 68.8181 216.932C92.7221 191.116 113.133 162.888 108.039 124.696C96.9811 41.748 244.901 -6.637 293.286 98.427C341.671 203.491 453.648 193.815 424.614 273.999Z" fill="#EEF5FF"/>
<path d="M224.394 389.536C345.117 389.536 442.983 377.964 442.983 363.689C442.983 349.414 345.117 337.842 224.394 337.842C103.671 337.842 5.80505 349.414 5.80505 363.689C5.80505 377.964 103.671 389.536 224.394 389.536Z" fill="#CEDDEF"/>
<path d="M159.31 315.144H22.342C20.58 315.144 19.152 313.716 19.152 311.954V230.749C19.152 228.987 20.58 227.559 22.342 227.559H159.311C161.073 227.559 162.501 228.987 162.501 230.749V311.954C162.5 313.716 161.072 315.144 159.31 315.144Z" fill="white"/>
<path d="M162.5 236.563H19.152V230.75C19.152 228.988 20.58 227.56 22.342 227.56H159.311C161.073 227.56 162.501 228.988 162.501 230.75L162.5 236.563Z" fill="#180617"/>
<path d="M78.856 258.116L78.86 259.059L78.874 274.998C78.874 275.217 79.052 275.394 79.271 275.393L98.028 275.316V259.648C98.028 259.281 97.729 258.983 97.362 258.985L90.902 259.012L83.541 259.042L83.262 258.525L82.905 257.864C82.825 257.714 82.666 257.617 82.491 257.619L79.336 257.631C79.069 257.633 78.856 257.848 78.856 258.116Z" fill="#180617"/>
<path d="M100.569 261.325H80.65L79.27 274.797H99.189L100.569 261.325Z" fill="white"/>
<path d="M79.532 275.624L99.735 275.706C100.006 275.707 100.223 275.535 100.277 275.279L102.253 265.573L102.713 263.317C102.797 262.912 102.44 262.491 102.013 262.49L101.526 262.488L81.8089 262.408C81.5389 262.407 81.321 262.579 81.269 262.836L78.967 274.138L78.908 274.426L78.833 274.798C78.748 275.203 79.104 275.622 79.532 275.624Z" fill="#180617"/>
<path d="M118.497 258.116L118.501 259.059L118.515 274.998C118.515 275.217 118.693 275.394 118.912 275.393L137.669 275.316V259.648C137.669 259.281 137.37 258.983 137.003 258.985L130.543 259.012L123.182 259.042L122.903 258.525L122.546 257.864C122.466 257.714 122.307 257.617 122.132 257.619L118.977 257.631C118.71 257.633 118.497 257.848 118.497 258.116Z" fill="#232323"/>
<path d="M140.21 261.325H120.291L118.911 274.797H138.83L140.21 261.325Z" fill="white"/>
<path d="M119.173 275.624L139.376 275.706C139.647 275.707 139.864 275.535 139.918 275.279L141.894 265.573L142.354 263.317C142.438 262.912 142.081 262.491 141.654 262.49L141.167 262.488L121.45 262.408C121.18 262.407 120.962 262.579 120.91 262.836L118.608 274.138L118.549 274.426L118.474 274.798C118.389 275.203 118.745 275.622 119.173 275.624Z" fill="#232323"/>
<path d="M78.856 285.518L78.86 286.461L78.874 302.4C78.874 302.619 79.052 302.796 79.271 302.795L98.028 302.718V287.05C98.028 286.683 97.729 286.385 97.362 286.387L90.902 286.414L83.541 286.444L83.262 285.927L82.905 285.266C82.825 285.116 82.666 285.019 82.491 285.021L79.336 285.033C79.069 285.034 78.856 285.25 78.856 285.518Z" fill="#F89D13"/>
<path d="M100.569 288.726H80.65L79.27 302.199H99.189L100.569 288.726Z" fill="white"/>
<path d="M79.532 303.026L99.735 303.108C100.006 303.109 100.223 302.937 100.277 302.681L102.253 292.975L102.713 290.719C102.797 290.314 102.44 289.893 102.013 289.892L101.526 289.89L81.8089 289.81C81.5389 289.809 81.321 289.981 81.269 290.238L78.967 301.54L78.908 301.828L78.833 302.2C78.748 302.605 79.104 303.024 79.532 303.026Z" fill="#F89D13"/>
<path d="M118.497 285.518L118.501 286.461L118.515 302.4C118.515 302.619 118.693 302.796 118.912 302.795L137.669 302.718V287.05C137.669 286.683 137.37 286.385 137.003 286.387L130.543 286.414L123.182 286.444L122.903 285.927L122.546 285.266C122.466 285.116 122.307 285.019 122.132 285.021L118.977 285.033C118.71 285.034 118.497 285.25 118.497 285.518Z" fill="#232323"/>
<path d="M140.21 288.726H120.291L118.911 302.199H138.83L140.21 288.726Z" fill="white"/>
<path d="M119.173 303.026L139.376 303.108C139.647 303.109 139.864 302.937 139.918 302.681L141.894 292.975L142.354 290.719C142.438 290.314 142.081 289.893 141.654 289.892L141.167 289.89L121.45 289.81C121.18 289.809 120.962 289.981 120.91 290.238L118.608 301.54L118.549 301.828L118.474 302.2C118.389 302.605 118.745 303.024 119.173 303.026Z" fill="#232323"/>
<path d="M57.178 248.701H29.69C28.697 248.701 27.891 247.896 27.891 246.902C27.891 245.909 28.696 245.103 29.69 245.103H57.178C58.171 245.103 58.977 245.908 58.977 246.902C58.977 247.895 58.171 248.701 57.178 248.701Z" fill="#232323"/>
<path d="M57.178 261.591H29.69C28.697 261.591 27.891 260.786 27.891 259.792C27.891 258.799 28.696 257.993 29.69 257.993H57.178C58.171 257.993 58.977 258.798 58.977 259.792C58.977 260.786 58.171 261.591 57.178 261.591Z" fill="#232323"/>
<path d="M57.178 274.482H29.69C28.697 274.482 27.891 273.677 27.891 272.683C27.891 271.69 28.696 270.884 29.69 270.884H57.178C58.171 270.884 58.977 271.689 58.977 272.683C58.977 273.677 58.171 274.482 57.178 274.482Z" fill="#232323"/>
<path d="M57.178 287.373H29.69C28.697 287.373 27.891 286.568 27.891 285.574C27.891 284.581 28.696 283.775 29.69 283.775H57.178C58.171 283.775 58.977 284.58 58.977 285.574C58.977 286.567 58.171 287.373 57.178 287.373Z" fill="#232323"/>
<path d="M57.178 300.263H29.69C28.697 300.263 27.891 299.458 27.891 298.464C27.891 297.471 28.696 296.665 29.69 296.665H57.178C58.171 296.665 58.977 297.47 58.977 298.464C58.977 299.458 58.171 300.263 57.178 300.263Z" fill="#232323"/>
<path d="M144.374 248.701H72.326C71.333 248.701 70.527 247.896 70.527 246.902C70.527 245.909 71.332 245.103 72.326 245.103H144.375C145.368 245.103 146.174 245.908 146.174 246.902C146.173 247.895 145.367 248.701 144.374 248.701Z" fill="#232323"/>
<path d="M31.5279 224.032L24.0229 216.482L9.23895 216.442L9.14294 248.622L31.4599 248.676L31.5279 224.032Z" fill="#232323"/>
<path d="M24 224.008L31.531 224.029L24.021 216.477L24 224.008Z" fill="white"/>
<path d="M25.9574 234.883C26.6368 231.756 24.6526 228.67 21.5256 227.991C18.3986 227.311 15.313 229.296 14.6336 232.423C13.9543 235.55 15.9385 238.635 19.0655 239.315C22.1924 239.994 25.2781 238.01 25.9574 234.883Z" fill="#F89D13"/>
<path d="M18.719 235.964L17.736 233.692C17.652 233.497 17.741 233.271 17.936 233.186C18.131 233.102 18.357 233.191 18.442 233.386L19.065 234.827L23.497 231.982C23.676 231.867 23.914 231.919 24.028 232.098C24.143 232.277 24.091 232.515 23.912 232.629L18.719 235.964Z" fill="white"/>
<path fill-rule="evenodd" clip-rule="evenodd" d="M79.174 125.855L82.8719 122.491L83.7439 119.471C86.8289 109.958 92.908 101.546 100.98 95.634L102.956 94.262L99.2579 97.626L97.282 98.998C88.163 105.677 82.031 114.977 79.174 125.855ZM163.034 106.838L166.732 103.474L167.093 82.725L163.394 86.089L163.034 106.838ZM185.184 78.888C183.183 76.986 181.385 75.266 179.227 73.508C152.546 51.779 113.655 49.541 85.8209 70.147C88.1439 68.856 90.2379 67.684 92.6699 66.561C121.158 53.397 155.237 58.415 178.561 79.472L181.486 82.251L183.491 84.256L187.189 80.892L185.184 78.888Z" fill="#180617"/>
<path fill-rule="evenodd" clip-rule="evenodd" d="M157.825 174.035L161.523 170.671C156.583 174.975 151.238 178.112 145.015 180.192L144.352 180.408L140.653 183.772C147.241 181.621 152.599 178.588 157.825 174.035ZM275.737 99.8121L279.436 96.4481L281.864 77.9451L260.379 72.7141L256.68 76.0781L278.165 81.3091L275.737 99.8121Z" fill="#FFA000"/>
<path fill-rule="evenodd" clip-rule="evenodd" d="M256.68 76.0781L260.379 72.7141L260.153 72.8921L259.929 73.0721L259.704 73.2521L259.48 73.4331L259.256 73.6151L259.033 73.7981L258.811 73.9821L258.589 74.1671L258.368 74.3531L258.147 74.5401L257.927 74.7271L254.228 78.0911L254.448 77.9031L254.669 77.7171L254.891 77.5311L255.113 77.3461L255.335 77.1621L255.558 76.9791L255.782 76.7971L256.005 76.6161L256.23 76.4351L256.455 76.2561L256.68 76.0781Z" fill="#180617"/>
<path fill-rule="evenodd" clip-rule="evenodd" d="M275.663 169.355L256.932 171.065L253.233 174.429L271.964 172.72C274.54 175.069 276.523 176.74 279.502 178.623C300.359 191.811 328.377 187.11 343.577 167.384L344.103 166.689L347.801 163.325C340.065 173.557 329.126 180.23 316.396 182.153C302.469 184.257 288.119 180.233 277.457 170.992L275.663 169.355ZM370.522 182.034C377.808 175.407 381.634 166.252 384.449 156.947L366.29 164.125L356.143 144.861L352.445 148.225L362.592 167.488L380.752 160.31L379.665 163.718C377.359 170.411 374.436 176.149 370.522 182.034Z" fill="#180617"/>
<path fill-rule="evenodd" clip-rule="evenodd" d="M382.119 154.982L385.817 151.618L386.716 146.832C391.755 114.591 376.584 82.433 348.125 66.223C323.354 52.114 292.31 52.568 267.978 67.429L265.08 69.288L261.382 72.652C264.49 70.658 266.92 69.149 270.26 67.492C299.205 53.134 334.518 57.924 358.447 79.793C378.615 98.224 387.644 125.781 382.606 152.595L382.119 154.982Z" fill="#180617"/>
<path fill-rule="evenodd" clip-rule="evenodd" d="M267.866 168.635L271.565 165.271L240.646 134.378L237.13 137.894L267.866 168.635ZM248.483 192.291L252.181 188.927L252.563 167.005L248.864 170.369L248.483 192.291ZM191.274 84.9771L171.462 86.785L167.763 90.149L187.575 88.341L215.609 116.374L219.14 112.843L191.274 84.9771Z" fill="#180617"/>
<path fill-rule="evenodd" clip-rule="evenodd" d="M154.554 211.125L158.252 207.761L161.288 189.827L135.041 182.391C126.365 183.25 118.217 182.186 110.184 178.703C90.697 170.255 79.314 150.08 81.678 129.049L81.851 127.683L64.846 134.405L53.793 113.422L50.094 116.786L61.147 137.769L78.152 131.047C77.999 131.342 77.71 135.832 77.691 136.53C76.887 165.493 101.187 188.347 130.015 185.887L131.342 185.756L157.589 193.192L154.554 211.125Z" fill="#180617"/>
<path fill-rule="evenodd" clip-rule="evenodd" d="M91.717 103.771C110.443 85.0451 141.24 85.0451 159.966 103.771L163.033 106.838L163.394 86.0901L183.489 84.2561L181.484 82.2511C150.88 51.6471 100.8 51.6471 70.196 82.2511C61.851 90.5971 55.78 100.391 51.986 110.844L63.216 132.163L79.172 125.856C81.235 117.74 85.416 110.072 91.717 103.771Z" fill="#180617"/>
<path fill-rule="evenodd" clip-rule="evenodd" d="M91.717 172.021C80.623 160.927 76.101 145.596 78.152 131.048L61.147 137.77L50.094 116.787C42.802 143.248 49.504 172.846 70.197 193.539C92.899 216.241 126.318 222.103 154.554 211.125L157.59 193.192L131.343 185.756C117.201 187.351 102.47 182.772 91.717 172.021Z" fill="#606060"/>
<path fill-rule="evenodd" clip-rule="evenodd" d="M215.61 159.417L248.483 192.291L248.865 170.369L267.866 168.635L237.129 137.894L215.61 159.417Z" fill="#180617"/>
<path fill-rule="evenodd" clip-rule="evenodd" d="M215.609 116.375L187.575 88.3411L167.764 90.1491L167.397 111.202L194.09 137.898L215.609 116.375Z" fill="#180617"/>
<path fill-rule="evenodd" clip-rule="evenodd" d="M280.656 96.4631C299.161 85.4881 323.654 87.9241 339.501 103.771C349.554 113.824 354.21 127.356 353.469 140.632L364.663 161.882L382.12 154.982C387.705 129.584 380.672 101.903 361.02 82.2521C334.047 55.2791 291.945 52.0791 261.382 72.6521L283.086 77.9371L280.656 96.4631Z" fill="#606060"/>
<path fill-rule="evenodd" clip-rule="evenodd" d="M339.5 172.021C321.01 190.511 290.751 190.744 271.964 172.719L253.233 174.428L252.849 196.492C283.646 224.11 331.434 223.126 361.019 193.54C370.588 183.971 377.166 172.498 380.751 160.311L362.591 167.489L352.444 148.226C350.557 156.971 346.243 165.278 339.5 172.021Z" fill="#180617"/>
<path fill-rule="evenodd" clip-rule="evenodd" d="M181.486 193.54L215.61 159.417L237.129 137.894L271.252 103.771C272.68 102.343 274.179 101.023 275.738 99.8119L278.166 81.3089L256.681 76.0769C254.272 77.9739 251.951 80.0319 249.733 82.2509L215.61 116.374L194.09 137.897L159.966 172.021C154.387 177.6 147.737 181.517 140.653 183.772L162.64 190.001L159.417 209.044C167.416 205.291 174.901 200.124 181.486 193.54Z" fill="#FFA000"/>
<path d="M206.947 382.213C259.639 382.213 302.354 377.072 302.354 370.731C302.354 364.39 259.639 359.249 206.947 359.249C154.255 359.249 111.54 364.39 111.54 370.731C111.54 377.072 154.255 382.213 206.947 382.213Z" fill="#BCCDDD"/>
<path d="M212.331 315.735L227.932 329.847L240.616 320.761L248.297 329.847C264 325.857 275.177 320.859 284.263 315.396L274.342 309.294L241.535 305.653L212.331 315.735Z" fill="white"/>
<path d="M191.021 263.712C197.385 264.307 203.749 264.902 210.113 265.497L215.402 245.903L216.352 279.223L213.139 314.457C214.781 326.688 283.441 322.274 284.262 315.396C285.837 302.205 284.214 291.489 284.262 287.264C288.783 286.823 300.32 283.306 299.976 274.05C299.235 254.11 294.044 214.182 280.578 206.1C273.94 202.284 259.111 198.903 259.111 198.903L234.954 198.741C228.382 199.669 218.075 202.261 211.226 210.639C207.647 215.017 206.358 219.329 205.502 222.125C202.509 231.9 198.069 245.173 191.021 263.712Z" fill="#F89D13"/>
<path d="M244.111 212.273L238.568 219.226C233.208 212.68 233.004 205.457 233.025 199.581L235.403 195.63L235.882 198.866C237.311 204.581 244.111 212.273 244.111 212.273Z" fill="white"/>
<path d="M284.262 287.264L244.858 291.393L233.478 297.358L284.752 296.221L284.262 287.264Z" fill="#F89D13"/>
<path d="M226.999 276.651C229.561 275.814 231.342 278.389 233.478 277.837C235.614 277.284 239.069 276.08 240.29 276.651C242.456 277.664 243.989 288.531 240.29 289.962C236.591 291.393 226.177 291.632 226.177 291.632C226.177 291.632 220.354 287.79 220.71 287.264C221.065 286.737 226.999 276.651 226.999 276.651Z" fill="#A36D4F"/>
<path d="M246.334 211.924L251.877 218.877C257.237 212.331 257.441 205.108 257.42 199.232L255.042 195.282L254.563 198.518C253.133 204.233 246.334 211.924 246.334 211.924Z" fill="white"/>
<path d="M270.524 228.003V262.775L240.29 276.651C240.29 276.651 247.127 294.907 241.534 305.652" stroke="#D17E11" stroke-width="1.5353" stroke-miterlimit="10"/>
<path d="M231.926 171.491C231.926 171.491 227.988 167.958 229.542 165.788C240.963 149.837 270.945 161.92 253.935 187.273C247.742 194.157 236.201 173.517 231.926 171.491Z" fill="#302D2E"/>
<path d="M231.814 167.877C231.814 167.877 230.693 180.547 231.878 185.728C232.98 190.543 236.414 193.257 237.631 193.422L235.874 203.725C235.874 203.725 243.425 210.885 245.503 211.28C247.581 211.675 254.356 202.308 254.356 202.308L253.193 184.052C253.98 183.511 259.574 182.39 258.723 178.136C258.155 175.293 254.538 175.984 252.767 177.198C252.877 175.753 250.988 174.964 250.161 170.262C249.334 165.557 239.232 167.882 231.814 167.877Z" fill="#A66534"/>
<path d="M237.631 193.422C237.631 193.422 247.182 197.095 252.343 187.605C252.343 187.605 251.181 199.262 237.041 196.684L237.631 193.422Z" fill="#965B2F"/>
<path d="M253.674 180.87C253.547 180.87 253.426 180.794 253.375 180.669C253.307 180.504 253.386 180.315 253.551 180.248L257.181 178.761C257.346 178.693 257.535 178.772 257.602 178.937C257.67 179.102 257.591 179.291 257.426 179.358L253.796 180.845C253.756 180.862 253.715 180.87 253.674 180.87Z" fill="#232323"/>
<path d="M239.747 182.706C238.841 182.706 237.148 182.574 237.004 181.596C236.855 180.579 238.659 176.532 239.023 175.732C239.097 175.57 239.288 175.498 239.451 175.571C239.613 175.645 239.685 175.836 239.612 175.999C238.801 177.786 237.55 180.861 237.644 181.503C237.703 181.905 239.033 182.113 240.188 182.049C240.367 182.039 240.519 182.175 240.528 182.354C240.538 182.532 240.402 182.684 240.223 182.694C240.127 182.699 239.958 182.706 239.747 182.706Z" fill="#232323"/>
<path d="M234.311 177.027C234.289 177.605 234.697 178.089 235.221 178.108C235.745 178.128 236.188 177.675 236.209 177.097C236.231 176.519 235.823 176.035 235.299 176.016C234.775 175.997 234.332 176.449 234.311 177.027Z" fill="#363435"/>
<path d="M246.032 173.89C245.923 173.89 245.816 173.835 245.755 173.734C245.499 173.312 245.166 173.058 244.737 172.958C243.683 172.712 242.455 173.485 242.443 173.493C242.293 173.589 242.093 173.545 241.997 173.394C241.901 173.244 241.945 173.044 242.096 172.948C242.156 172.91 243.571 172.023 244.883 172.328C245.482 172.468 245.961 172.828 246.307 173.398C246.399 173.551 246.351 173.749 246.198 173.842C246.146 173.875 246.089 173.89 246.032 173.89Z" fill="#232323"/>
<path d="M236.477 173.214C236.401 173.214 236.324 173.187 236.263 173.133C236.256 173.127 235.558 172.516 234.887 172.588C234.606 172.618 234.37 172.768 234.165 173.045C234.059 173.188 233.857 173.219 233.713 173.113C233.569 173.007 233.539 172.805 233.645 172.662C233.959 172.236 234.355 171.995 234.821 171.946C235.773 171.845 236.654 172.618 236.691 172.651C236.824 172.769 236.836 172.974 236.718 173.107C236.654 173.178 236.566 173.214 236.477 173.214Z" fill="#232323"/>
<path d="M243.284 184.605C238.517 185.741 236.208 184.811 236.208 184.811C236.208 184.811 236.543 188.007 239.485 188.295C243.695 188.708 243.284 184.605 243.284 184.605Z" fill="#703123"/>
<path d="M236.391 184.872C236.391 184.872 236.612 185.463 236.681 185.583C236.752 185.699 237.287 186.046 239.332 186.175C241.062 186.286 242.759 185.781 243.237 185.624C243.328 185.047 243.283 184.606 243.283 184.606C243.005 184.674 242.734 184.73 242.471 184.783C238.986 185.488 236.985 185.046 236.394 184.872C236.391 184.872 236.391 184.872 236.391 184.872Z" fill="white"/>
<path d="M242.255 177.631C242.233 178.226 242.653 178.725 243.193 178.745C243.733 178.765 244.189 178.299 244.211 177.704C244.233 177.109 243.813 176.61 243.273 176.59C242.733 176.57 242.277 177.036 242.255 177.631Z" fill="#363435"/>
<path d="M169.59 314.349L148.653 260.515C146.8 255.885 150.124 250.81 155.009 250.81H220.238C223.181 250.81 225.798 252.731 226.744 255.586L244.73 309.886L265.734 309.989C267.44 309.997 268.819 312.554 268.819 314.302L245.699 314.029L169.59 314.349Z" fill="#232323"/>
<path d="M200.532 281.718C200.913 285.639 197.708 288.784 193.345 288.897C188.935 289.01 184.737 285.994 183.982 282.001C183.193 277.824 186.456 274.263 191.252 274.226C195.994 274.188 200.134 277.62 200.532 281.718Z" fill="white"/>
<path d="M217.557 350.253L230.758 361.466L216.691 363.455L202.228 356.356L217.557 350.253Z" fill="#363435"/>
<path d="M132.793 290.649C132.793 290.649 122.789 294.221 122.748 305.438C122.668 326.924 166.162 350.608 166.162 350.608L224.042 312.257L227.67 310.789C227.669 310.791 149.536 281.441 132.793 290.649Z" fill="#363435"/>
<path d="M176.707 353.672C176.707 353.672 149.449 347.858 140.75 352.067C132.05 356.277 119.279 361.169 123.589 364.308C127.9 367.447 143.809 371.702 152.998 370.871C156.278 370.574 160.892 370.078 165.48 369.363C165.745 369.395 165.99 369.413 166.206 369.413C166.395 369.413 166.559 369.327 166.701 369.167C174.534 367.875 181.935 365.936 182.058 363.251C182.259 358.859 176.707 353.672 176.707 353.672Z" fill="#180617"/>
<path d="M160.681 353.219C160.681 353.219 242.458 299.579 245.807 298.462C249.155 297.346 257.248 292.044 265.34 294.276C273.432 296.508 280.688 303.764 284.315 314.367C286.387 320.424 287.367 330.762 287.826 338.512C288.375 347.78 285.506 357.021 279.443 364.053C276.685 367.253 273.283 370.036 269.246 371.292C268.394 371.557 267.511 371.786 266.603 371.983C251.141 375.335 235.252 368.395 226.565 355.172L224.657 352.268C224.657 352.268 171.161 371.921 170.324 371.642L160.681 353.219Z" fill="#363435"/>
<path d="M221.994 356.698C221.994 356.698 197.712 348.316 191.673 350.261C185.633 352.206 195.833 366.653 214.011 367.813C232.189 368.973 241.553 364.69 240.297 359.049C239.041 353.409 221.994 356.698 221.994 356.698Z" fill="#180617"/>
<path d="M221.704 359.776C221.704 359.776 197.422 351.394 191.383 353.339C185.343 355.284 195.542 369.731 213.721 370.891C231.9 372.051 241.263 367.768 240.007 362.127C238.751 356.487 221.704 359.776 221.704 359.776Z" fill="#232323"/>
<path d="M332.023 365.547C350.483 365.547 365.447 362.029 365.447 357.69C365.447 353.351 350.483 349.833 332.023 349.833C313.563 349.833 298.599 353.351 298.599 357.69C298.599 362.029 313.563 365.547 332.023 365.547Z" fill="#BCCDDD"/>
<path d="M360.045 200.176C360.001 199.853 359.607 199.607 359.303 199.612C352.038 199.73 342.931 199.751 336.778 204.242C331.046 208.426 330.186 215.813 330.315 222.392C330.329 223.097 331.108 223.293 331.552 222.993C331.573 223.001 331.586 223.02 331.607 223.028C346.881 228.74 362.211 216.193 360.045 200.176Z" fill="#307175"/>
<path d="M324.858 229.9C324.916 224.843 323.74 219.728 319.856 216.216C315.402 212.191 308.961 209.894 303.696 207.162C303.161 206.886 302.3 207.361 302.565 208.032C304.946 214.09 304.612 221.493 308.818 226.754C312.393 231.228 318.436 232.738 323.806 231.085C324.078 231.001 324.227 230.816 324.296 230.607C324.597 230.531 324.854 230.301 324.858 229.9Z" fill="#2F7D7F"/>
<path d="M371.824 246.381C368.251 243.611 363.647 243.893 359.323 244.082C354.529 244.291 349.707 245.025 345.338 247.101C337.731 250.719 332.38 258.71 335.133 267.166C335.065 267.523 335.202 267.924 335.644 268.064C342.898 270.36 346.401 265.515 350.768 260.693C356.363 254.514 363.54 250.114 371.484 247.667C371.981 247.516 372.309 246.757 371.824 246.381Z" fill="#2F7D7F"/>
<path d="M389.182 264.449C389.09 264.418 388.997 264.372 388.905 264.326C385.825 263.003 383.069 260.492 380.267 258.075C380.267 258.058 380.251 258.058 380.236 258.043C377.171 255.396 374.046 252.885 370.396 252.224C370.365 252.208 370.335 252.208 370.304 252.208C368.625 251.9 366.839 252.008 364.884 252.654C357.123 255.242 352.351 263.326 351.581 271.101C351.565 271.286 351.627 271.439 351.703 271.548C351.688 271.593 351.673 271.624 351.657 271.67C351.534 272.101 351.765 272.671 352.35 272.747C359.001 273.533 365.53 272.764 372.043 271.391C377.817 270.175 384.346 269.191 389.366 265.85C389.952 265.466 389.798 264.695 389.182 264.449Z" fill="#2F7D7F"/>
<path d="M377.63 279.338C369.14 277.637 351.591 273.314 350.393 286.851C350.355 287.285 350.634 287.516 350.962 287.567C358.67 296.611 373.656 289.436 378.089 280.469C378.295 280.056 378.149 279.442 377.63 279.338Z" fill="#2F7D7F"/>
<path d="M323.813 252.114C321.561 247.128 316.327 241.975 311.178 240.097C310.703 239.925 310.199 240.371 310.202 240.84C310.287 250.664 307.878 266.128 318.563 271.562C318.641 271.601 318.715 271.611 318.789 271.625C319.074 272.051 319.765 272.211 320.089 271.632C323.387 265.737 326.853 258.84 323.813 252.114Z" fill="#307175"/>
<path d="M295.987 258.366C290.765 254.099 282.523 253.173 276.451 256.257C268.031 260.532 269.54 270.679 268.258 278.495C268.133 279.25 268.938 279.775 269.544 279.245C277.868 271.944 289.476 269.077 295.828 259.516L295.829 259.515C296.233 259.275 296.447 258.743 295.987 258.366Z" fill="#2F7D7F"/>
<path d="M296.039 266.101C295.799 265.735 295.406 265.693 295.087 265.823C294.874 265.551 294.514 265.399 294.126 265.61C289.956 267.899 285.065 271.097 284.243 276.142C283.263 282.156 286.642 288.026 287.025 293.951C287.077 294.765 288.368 295.06 288.537 294.157C289.606 288.463 295.507 285.868 297.676 280.747C299.461 276.529 298.519 269.891 296.039 266.101Z" fill="#307175"/>
<path d="M321.775 301.038C316.874 294.158 311.835 288.276 303.324 286.12C302.707 285.963 302.068 286.67 302.455 287.251C304.371 290.133 304.333 293.4 305.938 296.306C306.887 298.027 308.451 299.313 310.088 300.348C313.716 302.642 318.395 304.723 322.442 302.405C323.264 301.933 322.589 300.713 321.775 301.038Z" fill="#307175"/>
<path d="M332.825 292.914C332.806 292.841 332.79 292.768 332.743 292.693C329.375 287.316 329.226 280.482 324.576 275.854C324.216 275.496 323.628 275.59 323.367 276.009C321.087 279.66 319.984 284.045 321.795 288.138C323.756 292.566 327.881 293.776 332.37 294.24C333.161 294.321 333.302 293.355 332.825 292.914Z" fill="#2F7D7F"/>
<path d="M342.269 232.813C341.311 232.011 340.029 232.807 339.081 233.212C337.298 233.969 335.555 234.845 333.996 236.005C331.082 238.175 329.083 241.251 328.901 244.881C328.878 244.972 328.872 245.064 328.883 245.161C328.881 245.267 328.863 245.368 328.864 245.476C328.869 246.35 330.068 246.451 330.343 245.779C334.071 244.964 337.019 242.56 339.462 239.68C340.585 238.359 344.512 234.69 342.269 232.813Z" fill="#2F7D7F"/>
<path d="M343.958 293.53C343.841 293.419 343.748 293.293 343.633 293.18C344.591 286.612 344.999 279.004 338.532 275.143C338.111 274.891 337.524 275.123 337.401 275.603C335.624 282.549 337.663 289.687 342.869 294.619C343.589 295.301 344.679 294.214 343.958 293.53Z" fill="#2F7D7F"/>
<path d="M388.52 263.679C385.672 262.417 382.992 260.229 380.268 258.075C380.268 258.058 380.252 258.058 380.237 258.043C377.111 255.566 373.939 253.133 370.397 252.224C370.366 252.208 370.336 252.208 370.305 252.208C368.626 251.9 366.84 252.008 364.885 252.654C357.124 255.242 352.352 263.326 351.582 271.101C351.566 271.286 351.628 271.439 351.704 271.548C351.689 271.593 351.674 271.624 351.658 271.67C351.92 271.655 352.167 271.532 352.32 271.301C352.474 271.27 352.613 271.224 352.736 271.086C355.261 268.39 357.956 265.882 360.604 263.31C361.882 262.078 363.129 260.522 364.577 259.491C367.656 257.289 370.304 257.705 373.538 258.643C377.403 259.768 380.929 261.77 384.44 263.695C385.749 264.432 387.027 265.681 388.52 265.003C388.782 264.895 388.905 264.603 388.905 264.326C388.905 264.047 388.767 263.786 388.52 263.679Z" fill="#307175"/>
<path d="M320.34 289.6C319.606 286.613 318.784 283.589 317.771 280.633C317.781 280.608 317.799 280.591 317.807 280.564C319.191 275.833 319.718 271.024 319.436 266.234C319.693 266.192 319.934 266.038 320.033 265.718C320.923 262.888 321.296 260.002 321.156 257.038C321.109 256.052 319.569 256.046 319.616 257.038C319.714 259.089 319.546 261.092 319.129 263.067C318.819 260.787 318.339 258.518 317.649 256.268C317.359 255.322 315.872 255.727 316.165 256.677C318.338 263.76 318.552 270.968 316.846 278.095C315.406 274.423 313.596 270.917 311.17 267.81C305.466 260.509 295.096 256.073 286.884 259.513C286.864 259.231 286.697 258.97 286.338 258.883C283.154 258.118 279.957 258.598 277.149 260.288C276.301 260.799 277.075 262.13 277.927 261.616C280.213 260.242 282.758 259.778 285.346 260.259C283.446 261.332 281.694 262.872 280.189 264.962C279.608 265.768 280.943 266.537 281.518 265.74C285.453 260.279 292.613 258.559 298.879 260.595C300.702 261.187 302.377 262.048 303.929 263.091C297.366 262.954 292.392 267.349 287.905 271.72C287.194 272.412 288.283 273.501 288.993 272.808C289.886 271.94 290.794 271.068 291.728 270.234C291.473 271.784 291.42 273.348 291.585 274.932C291.687 275.907 293.228 275.918 293.125 274.932C292.913 272.908 293.051 270.934 293.566 268.964C293.594 268.858 293.593 268.763 293.582 268.67C296.755 266.164 300.301 264.339 304.655 264.649C305.061 264.678 305.29 264.434 305.362 264.133C308.856 266.89 311.601 270.634 313.593 274.593C317.554 282.464 319.812 291.462 321.09 300.473C317.905 299.649 315.13 297.987 312.899 295.543C312.23 294.81 311.143 295.901 311.811 296.631C312.934 297.862 314.204 298.907 315.581 299.77C314.693 299.767 313.806 299.724 312.923 299.585C311.955 299.434 311.537 300.917 312.514 301.069C313.99 301.3 315.458 301.385 316.95 301.291C317.27 301.27 317.476 301.088 317.589 300.86C318.724 301.383 319.917 301.8 321.164 302.085C321.218 302.098 321.263 302.087 321.314 302.089C321.877 306.455 322.218 310.808 322.418 315.021C322.465 316.009 324.005 316.014 323.958 315.021C323.553 306.45 322.391 297.939 320.34 289.6Z" fill="#245E5E"/>
<path d="M345.891 257.948C344.504 258.954 343.185 260.024 341.922 261.149C342.663 258.419 343.826 255.884 345.477 253.54C346.048 252.727 344.714 251.958 344.147 252.762C342.134 255.621 340.763 258.792 340.053 262.215C340.005 262.446 340.058 262.641 340.161 262.798C336.732 266.153 333.805 269.962 331.439 274.203C331.019 268.895 330.672 263.581 330.413 258.261C330.23 254.482 329.937 250.253 329.828 245.897C331.611 243.496 333.495 241.133 336.263 239.834C337.16 239.413 336.378 238.085 335.486 238.504C333.139 239.608 331.374 241.435 329.792 243.424C329.78 241.381 329.816 239.327 329.94 237.284C330.062 237.075 330.092 236.822 329.983 236.576C330.754 225.706 334.019 215.432 344.43 210.632C345.33 210.217 344.548 208.89 343.653 209.302C341.017 210.517 338.826 212.07 337.005 213.882C336.92 212.389 337.162 210.923 337.714 209.51C338.074 208.585 336.586 208.185 336.229 209.1C335.448 211.099 335.271 213.175 335.609 215.289C335.614 215.324 335.632 215.342 335.641 215.373C331.21 220.659 329.38 227.719 328.716 235.034C326.485 232.446 324.253 229.855 322.023 227.265C322.239 227.156 322.398 226.947 322.377 226.622C322.238 224.458 321.559 222.436 320.306 220.657C319.741 219.854 318.405 220.622 318.977 221.435C319.903 222.75 320.482 224.194 320.72 225.756C319.891 224.794 319.062 223.831 318.233 222.871C317.585 222.118 316.5 223.211 317.144 223.959C320.948 228.373 324.751 232.785 328.555 237.199C328.39 239.892 328.368 242.596 328.406 245.243C328.371 245.289 328.337 245.335 328.303 245.38C328.044 245.731 328.165 246.067 328.422 246.277C328.474 248.869 328.577 251.4 328.673 253.782C329.165 266.06 330.103 278.313 331.444 290.521C328.67 288.99 327.148 286.107 325.766 283.34C325.323 282.453 323.994 283.231 324.436 284.116C326.022 287.29 327.838 290.609 331.209 292.152C331.353 292.217 331.492 292.226 331.624 292.212C332.509 300.053 333.562 307.874 334.782 315.673C334.935 316.648 336.418 316.234 336.267 315.263C334.264 302.46 332.722 289.592 331.641 276.681C331.779 276.625 331.91 276.532 332 276.357C335.527 269.554 340.46 263.778 346.666 259.277C347.462 258.701 346.694 257.365 345.891 257.948Z" fill="#245E5E"/>
<path d="M371.368 259.162C368.13 259.102 365.178 259.876 362.497 261.21C363.638 259.994 364.864 258.863 366.194 257.845C366.97 257.252 366.204 255.913 365.417 256.516C362.832 258.493 360.593 260.783 358.682 263.418C358.607 263.52 358.566 263.624 358.548 263.723C353.34 267.81 349.488 274.053 347.092 280.01C345.636 283.628 344.559 287.37 343.72 291.179C342.861 289.735 342.381 288.119 341.846 286.525C341.42 285.255 341.032 284.1 339.852 283.361C339.009 282.833 338.235 284.166 339.075 284.69C340.319 285.469 340.609 287.726 341.059 289.021C341.496 290.28 341.981 291.475 342.755 292.567C342.914 292.792 343.133 292.883 343.354 292.896C341.488 302.202 340.972 311.877 340.077 321.199C339.982 322.184 341.523 322.178 341.617 321.199C342.449 312.521 342.986 303.647 344.558 295.013C344.67 294.977 344.779 294.918 344.879 294.807C347.787 291.595 350.804 288.363 354.473 286.131C355.58 287.158 356.867 287.934 358.307 288.425C359.246 288.745 359.65 287.258 358.716 286.941C357.67 286.583 356.726 286.046 355.891 285.35C356.911 284.83 357.968 284.364 359.102 284.024C360.05 283.74 359.646 282.253 358.693 282.54C357.201 282.987 355.815 283.604 354.506 284.334C354.271 284.347 354.06 284.489 353.918 284.687C350.593 286.666 347.771 289.404 345.102 292.29C345.614 289.866 346.195 287.459 346.928 285.092C348.414 280.292 350.768 274.975 354.045 270.532C354.074 270.527 354.097 270.532 354.127 270.524C355.88 269.939 357.665 269.525 359.496 269.278C360.473 269.147 360.057 267.662 359.087 267.792C357.938 267.947 356.812 268.192 355.697 268.479C359.716 263.84 364.909 260.582 371.37 260.703C372.359 260.722 372.359 259.183 371.368 259.162Z" fill="#245E5E"/>
<path d="M358.526 307.14L357.303 314.77L355.102 328.437L350.316 358.229H315.29L310.504 328.437L308.305 314.77L307.081 307.14H358.526Z" fill="#F89D13"/>
<path d="M321.704 314.77L320.481 307.14H307.081L308.305 314.77L310.504 328.437L315.29 358.229H328.69L323.904 328.437L321.704 314.77Z" fill="#D17E11"/>
<path d="M421.444 313.039H418.083V309.666C418.083 308.94 417.494 308.356 416.767 308.356C416.038 308.356 415.454 308.939 415.454 309.666V313.039H412.09C411.364 313.039 410.777 313.616 410.777 314.343C410.777 315.069 411.363 315.665 412.09 315.665H415.454V319.023C415.454 319.749 416.037 320.342 416.767 320.342C417.493 320.342 418.083 319.749 418.083 319.023V315.665H421.444C422.17 315.665 422.76 315.07 422.76 314.343C422.76 313.617 422.171 313.039 421.444 313.039Z" fill="#A9CBF7"/>
<path d="M10.667 195.199H7.306V191.826C7.306 191.1 6.717 190.516 5.99 190.516C5.261 190.516 4.677 191.099 4.677 191.826V195.199H1.313C0.587 195.199 0 195.776 0 196.503C0 197.229 0.587 197.825 1.313 197.825H4.677V201.183C4.677 201.909 5.26 202.502 5.99 202.502C6.716 202.502 7.306 201.909 7.306 201.183V197.825H10.667C11.393 197.825 11.983 197.23 11.983 196.503C11.983 195.776 11.394 195.199 10.667 195.199Z" fill="#F89D13"/>
<path d="M386.013 314.349C386.013 317.585 388.647 320.22 391.881 320.22C395.117 320.22 397.749 317.585 397.749 314.349C397.749 311.116 395.117 308.478 391.881 308.478C388.648 308.478 386.013 311.116 386.013 314.349ZM388.264 314.349C388.264 312.354 389.886 310.729 391.881 310.729C393.878 310.729 395.498 312.354 395.498 314.349C395.498 316.347 393.878 317.966 391.881 317.966C389.886 317.966 388.264 316.347 388.264 314.349Z" fill="#A9CBF7"/>
<path d="M383.866 218.877C383.866 222.113 386.5 224.748 389.734 224.748C392.97 224.748 395.602 222.113 395.602 218.877C395.602 215.644 392.97 213.006 389.734 213.006C386.5 213.007 383.866 215.644 383.866 218.877ZM386.117 218.877C386.117 216.882 387.739 215.257 389.734 215.257C391.731 215.257 393.351 216.882 393.351 218.877C393.351 220.875 391.731 222.494 389.734 222.494C387.739 222.494 386.117 220.875 386.117 218.877Z" fill="#A9CBF7"/>
<path d="M17.9919 172.582C17.9919 175.818 20.6259 178.453 23.8599 178.453C27.0959 178.453 29.7279 175.818 29.7279 172.582C29.7279 169.349 27.0959 166.711 23.8599 166.711C20.6269 166.711 17.9919 169.348 17.9919 172.582ZM20.2429 172.582C20.2429 170.587 21.8649 168.962 23.8599 168.962C25.8569 168.962 27.4769 170.587 27.4769 172.582C27.4769 174.58 25.8569 176.199 23.8599 176.199C21.8649 176.198 20.2429 174.579 20.2429 172.582Z" fill="#F89D13"/>
<path d="M24.35 195.029C23.528 195.029 22.87 195.699 22.87 196.514C22.87 197.339 23.528 197.988 24.35 197.988H39.142C39.961 197.988 40.624 197.339 40.624 196.514C40.624 195.699 39.96 195.029 39.142 195.029H24.35Z" fill="#F89D13"/>
<path d="M45.484 195.029C44.671 195.029 44.004 195.699 44.004 196.514C44.004 197.339 44.671 197.988 45.484 197.988H48.199C49.018 197.988 49.676 197.339 49.676 196.514C49.676 195.699 49.018 195.029 48.199 195.029H45.484Z" fill="#F89D13"/>
<path d="M385.453 289.179C384.631 289.179 383.973 289.849 383.973 290.664C383.973 291.489 384.631 292.138 385.453 292.138H400.245C401.064 292.138 401.727 291.489 401.727 290.664C401.727 289.849 401.063 289.179 400.245 289.179H385.453Z" fill="#A9CBF7"/>
<path d="M406.586 289.179C405.773 289.179 405.106 289.849 405.106 290.664C405.106 291.489 405.773 292.138 406.586 292.138H409.301C410.12 292.138 410.778 291.489 410.778 290.664C410.778 289.849 410.12 289.179 409.301 289.179H406.586Z" fill="#A9CBF7"/>
<path d="M107.42 153.156C106.598 153.156 105.94 153.826 105.94 154.641C105.94 155.466 106.598 156.115 107.42 156.115H122.212C123.031 156.115 123.694 155.466 123.694 154.641C123.694 153.826 123.03 153.156 122.212 153.156H107.42Z" fill="#A9CBF7"/>
<path d="M128.553 153.156C127.74 153.156 127.073 153.826 127.073 154.641C127.073 155.466 127.74 156.115 128.553 156.115H131.268C132.087 156.115 132.745 155.466 132.745 154.641C132.745 153.826 132.087 153.156 131.268 153.156H128.553Z" fill="#A9CBF7"/>
<path d="M231.166 49.619L231.739 47.89L227.728 45.195L224.75 47.121C223.458 46.049 222.013 45.239 220.478 44.691L220.615 41.147L215.633 38.72L215.06 40.449L214.317 43.917C212.693 44.07 211.093 44.497 209.576 45.215L207.166 42.613L203.314 44.322L202.741 46.051L204.667 49.029C203.601 50.317 202.786 51.766 202.236 53.3L199.265 51.434L198.692 53.163L197.995 58.717L201.463 59.461C201.616 61.085 202.043 62.686 202.762 64.202L200.733 64.882L200.16 66.611L203.597 71.036L206.576 69.11C207.863 70.177 209.313 70.992 210.849 71.542L210.712 75.086L216.267 75.784L216.84 74.055L217.011 72.317C218.634 72.163 220.24 71.732 221.752 71.017L224.161 73.619L228.587 70.182L229.16 68.453L226.661 67.204C227.733 65.912 228.542 64.467 229.092 62.931L232.636 63.068L233.209 61.339L233.334 57.513L229.865 56.77C229.713 55.147 229.281 53.541 228.567 52.03L231.166 49.619ZM221.087 65.098C217.231 68.094 211.676 67.396 208.68 63.54C205.684 59.684 206.382 54.129 210.238 51.133C214.095 48.137 219.65 48.835 222.646 52.692C225.641 56.548 224.943 62.103 221.087 65.098Z" fill="#363435"/>
<path d="M231.739 47.89L228.302 43.466L225.324 45.392C224.032 44.32 222.587 43.51 221.052 42.961L221.189 39.417L215.633 38.719L214.89 42.187C213.266 42.34 211.666 42.767 210.149 43.485L207.739 40.883L203.314 44.321L205.24 47.299C204.174 48.587 203.359 50.036 202.809 51.57L199.265 51.433L198.568 56.987L202.036 57.731C202.189 59.355 202.616 60.955 203.335 62.472L200.732 64.882L204.169 69.307L207.148 67.381C208.435 68.448 209.885 69.263 211.421 69.813L211.284 73.357L216.838 74.055L217.582 70.587C219.206 70.434 220.811 70.003 222.323 69.288L224.732 71.89L229.157 68.453L227.231 65.475C228.303 64.183 229.113 62.738 229.662 61.202L233.205 61.339L233.903 55.784L230.434 55.041C230.282 53.418 229.85 51.812 229.136 50.301L231.739 47.89ZM221.66 63.37C217.805 66.366 212.249 65.668 209.253 61.812C206.257 57.956 206.955 52.401 210.811 49.405C214.668 46.41 220.223 47.107 223.219 50.964C226.214 54.819 225.517 60.374 221.66 63.37Z" fill="#232323"/>
<path d="M231.833 14.0679L232.265 12.2909L229.355 9.01888L226.036 10.3059C224.984 8.98888 223.729 7.89988 222.331 7.04788L223.187 3.59188L217.868 1.77588L216.432 5.03388C214.805 4.85388 213.145 4.94788 211.508 5.34588L209.668 2.29788L205.051 3.00088L204.619 4.77788L205.906 8.09688C204.596 9.14588 203.5 10.4039 202.647 11.8009L199.191 10.9459L197.807 14.4869L197.375 16.2639L200.633 17.7009C200.453 19.3279 200.548 20.9889 200.946 22.6249L198.329 22.6869L197.897 24.4639L200.375 29.5129L203.695 28.2259C204.743 29.5369 206.002 30.6319 207.4 31.4849L206.544 34.9399L211.862 36.7559L213.298 33.4989C214.925 33.6779 216.591 33.5809 218.222 33.1859L220.061 36.2339L225.11 33.7549L225.542 31.9779L223.823 30.4359C225.139 29.3839 226.229 28.1279 227.082 26.7299L230.537 27.5859L232.353 22.2679L232.784 20.4909L229.094 20.8319C229.275 19.2059 229.177 17.5399 228.782 15.9089L231.833 14.0679ZM218.776 27.2309C214.378 29.3909 209.06 27.5749 206.901 23.1769C204.741 18.7779 206.557 13.4609 210.955 11.3009C215.354 9.14188 220.671 10.9559 222.831 15.3559C224.99 19.7549 223.175 25.0719 218.776 27.2309Z" fill="#D17E11"/>
<path d="M232.265 12.291L229.786 7.243L226.467 8.53C225.415 7.214 224.16 6.124 222.762 5.272L223.618 1.816L218.299 0L216.863 3.258C215.235 3.077 213.576 3.172 211.939 3.57L210.099 0.522003L205.05 3.002L206.337 6.321C205.027 7.37 203.932 8.629 203.079 10.025L199.623 9.17L197.808 14.488L201.066 15.925C200.886 17.552 200.981 19.213 201.379 20.849L198.331 22.688L200.809 27.737L204.129 26.45C205.178 27.761 206.436 28.856 207.834 29.71L206.978 33.165L212.296 34.98L213.732 31.723C215.359 31.903 217.025 31.805 218.656 31.41L220.495 34.458L225.544 31.979L224.257 28.66C225.573 27.608 226.663 26.352 227.516 24.955L230.971 25.811L232.787 20.493L229.529 19.057C229.71 17.431 229.612 15.765 229.217 14.134L232.265 12.291ZM219.207 25.454C214.809 27.614 209.491 25.798 207.332 21.4C205.172 17.002 206.988 11.684 211.386 9.524C215.786 7.365 221.102 9.18 223.262 13.579C225.422 17.978 223.607 23.295 219.207 25.454Z" fill="#F89D13"/>
<path d="M268.306 22.6479L269 20.5529L262.867 18.5869L260.008 21.7949C258.154 20.9589 256.206 20.4779 254.236 20.3309L253.256 16.1469L247.237 15.0249L246.542 17.1199L246.791 21.4099C244.943 22.1109 243.211 23.1249 241.671 24.4529L238.019 22.1889L234.652 25.5339L233.957 27.6289L237.165 30.4879C236.334 32.3349 235.849 34.2899 235.7 36.2589L232.211 35.1449L231.517 37.2399L232.49 43.9519L236.78 43.7049C237.481 45.5519 238.496 47.2839 239.823 48.8239L238.253 50.3809L237.559 52.4759L242.997 56.5379L245.857 53.3299C247.704 54.1619 249.659 54.6469 251.63 54.7949L252.61 58.9779L259.322 58.0049L260.017 55.9099L259.075 53.7159C260.922 53.0139 262.658 51.9939 264.194 50.6719L267.846 52.9359L271.909 47.4969L272.604 45.4019L268.701 44.6379C269.537 42.7839 270.018 40.8349 270.165 38.8649L274.348 37.8849L275.043 35.7899L273.375 31.1709L269.084 31.4189C268.385 29.5719 267.363 27.8359 266.042 26.2999L268.306 22.6479ZM261.513 43.9699C257.975 48.7089 251.263 49.6809 246.524 46.1429C241.785 42.6039 240.812 35.8929 244.35 31.1529C247.89 26.4139 254.601 25.4409 259.341 28.9809C264.08 32.5199 265.053 39.2309 261.513 43.9699Z" fill="#180617"/>
<path d="M269 20.553L263.561 16.491L260.702 19.699C258.848 18.863 256.9 18.382 254.93 18.235L253.95 14.051L247.236 15.024L247.485 19.314C245.637 20.015 243.906 21.029 242.365 22.356L238.713 20.092L234.651 25.532L237.859 28.391C237.028 30.238 236.543 32.193 236.394 34.162L232.21 35.143L233.183 41.855L237.473 41.608C238.174 43.455 239.189 45.187 240.516 46.727L238.252 50.379L243.691 54.442L246.55 51.233C248.397 52.065 250.352 52.55 252.323 52.698L253.303 56.881L260.015 55.908L259.768 51.619C261.615 50.917 263.351 49.897 264.887 48.575L268.539 50.839L272.602 45.4L269.394 42.541C270.23 40.687 270.711 38.738 270.858 36.768L275.041 35.788L274.069 29.075L269.778 29.323C269.079 27.476 268.057 25.74 266.736 24.204L269 20.553ZM262.207 41.875C258.669 46.614 251.957 47.587 247.218 44.048C242.479 40.509 241.506 33.798 245.045 29.059C248.585 24.32 255.296 23.347 260.036 26.886C264.774 30.425 265.747 37.136 262.207 41.875Z" fill="#180617"/>
<path d="M62.816 35.8159H133.24C135.038 35.8159 136.496 37.2759 136.496 39.0749V73.1959C136.496 74.9939 135.038 76.4539 133.24 76.4539H62.816C61.017 76.4539 59.559 74.9939 59.559 73.1959V39.0739C59.56 37.2759 61.017 35.8159 62.816 35.8159Z" fill="#180617"/>
<path d="M59.5599 45.405V78.881C59.5599 80.679 61.0179 82.14 62.8169 82.14H133.241C135.039 82.14 136.497 80.68 136.497 78.881V45.405H59.5599Z" fill="#FFA000"/>
<path d="M71.45 40.79C71.45 42.17 70.331 43.288 68.952 43.288C67.572 43.288 66.453 42.17 66.453 40.79C66.453 39.409 67.572 38.291 68.952 38.291C70.331 38.291 71.45 39.41 71.45 40.79Z" fill="#363435"/>
<path d="M80.9639 40.79C80.9639 42.17 79.8449 43.288 78.4649 43.288C77.0849 43.288 75.9659 42.17 75.9659 40.79C75.9659 39.409 77.0849 38.291 78.4649 38.291C79.8459 38.291 80.9639 39.41 80.9639 40.79Z" fill="#363435"/>
</svg>
